<svg version="1.1" xmlns="http://www.w3.org/2000/svg" xmlns:xlink="http://www.w3.org/1999/xlink" x="0px" y="0px"
	 width="318.69px" height="81.04px" viewBox="0 0 318.69 81.04" xml:space="preserve">
	<g id="header-bg">
		<path fill="#CCCCCC" d="M103.02,39.49c0-0.89-0.72-1.62-1.62-1.62c-0.08,0-0.15,0.01-0.22,0.02v3.19
			c0.07,0.01,0.15,0.02,0.22,0.02C102.29,41.1,103.02,40.38,103.02,39.49z"/>
		<circle fill="#CCCCCC" cx="119.29" cy="50.02" r="1.78"/>
		<path fill="#CCCCCC" d="M138.17,46.59c0,0.21,0.04,0.41,0.11,0.59c0.93-0.46,1.7-1.14,2.29-2.02c-0.23-0.12-0.49-0.2-0.77-0.2
			C138.9,44.96,138.17,45.69,138.17,46.59z"/>
		<path fill="#CCCCCC" d="M107.14,38.3c0,0.7,0.57,1.27,1.27,1.27c0.21,0,0.41-0.07,0.58-0.16c-0.15-0.93-0.45-1.7-0.87-2.33
			C107.56,37.22,107.14,37.7,107.14,38.3z"/>
		<circle fill="#CCCCCC" cx="88.5" cy="40.25" r="1.75"/>
		<circle fill="#CCCCCC" cx="134.58" cy="45.3" r="1.49"/>
		<path fill="#CCCCCC" d="M148.14,29.11c-0.41,0-0.79,0.17-1.06,0.44c0.69,0.73,1.31,1.52,1.85,2.37c0.43-0.27,0.73-0.74,0.73-1.29
			C149.66,29.79,148.98,29.11,148.14,29.11z"/>
		<path fill="#CCCCCC" d="M139.63,38.34c0,0.91,0.74,1.65,1.65,1.65c0.15,0,0.3-0.03,0.44-0.07c-0.12-1.18-0.47-2.24-1.02-3.12
			C140.08,37.03,139.63,37.63,139.63,38.34z"/>
		<circle fill="#CCCCCC" cx="132.27" cy="40.34" r="1.75"/>
		<circle fill="#CCCCCC" cx="135.72" cy="36.5" r="1.77"/>
		<circle fill="#CCCCCC" cx="173.31" cy="38.27" r="1.28"/>
		<path fill="#CCCCCC" d="M173.48,28.03c0,0.99,0.8,1.79,1.79,1.79c0.15,0,0.29-0.02,0.42-0.06v-3.48
			c-0.14-0.03-0.28-0.06-0.42-0.06C174.29,26.23,173.48,27.04,173.48,28.03z"/>
		<circle fill="#CCCCCC" cx="176.69" cy="21.24" r="1.7"/>
		<path fill="#CCCCCC" d="M169.96,43.81h1.14c-0.17-0.09-0.36-0.15-0.57-0.15S170.14,43.72,169.96,43.81z"/>
		<path fill="#CCCCCC" d="M192.36,28.95c-0.23,0-0.46,0.05-0.66,0.13v3.29c0.2,0.08,0.43,0.13,0.66,0.13c0.98,0,1.77-0.79,1.77-1.77
			S193.34,28.95,192.36,28.95z"/>
		<circle fill="#CCCCCC" cx="167.84" cy="20.29" r="1.6"/>
		<circle fill="#CCCCCC" cx="170.26" cy="32.85" r="1.71"/>
		<path fill="#CCCCCC" d="M150.95,35.16c0,0.82,0.66,1.48,1.48,1.48s1.48-0.66,1.48-1.48c0-0.34-0.12-0.65-0.32-0.9h-1.81v-0.42
			C151.29,34.08,150.95,34.58,150.95,35.16z"/>
		<path fill="#CCCCCC" d="M104.99,44.23c-0.79,0-1.44,0.65-1.44,1.44c0,0.67,0.46,1.23,1.08,1.39c0.57-0.17,1.11-0.4,1.62-0.7
			c0.11-0.21,0.18-0.44,0.18-0.69C106.43,44.87,105.79,44.23,104.99,44.23z"/>
		<circle fill="#CCCCCC" cx="170.26" cy="25.17" r="1.44"/>
		<circle fill="#CCCCCC" cx="118.17" cy="30.5" r="1.79"/>
		<path fill="#CCCCCC" d="M92.7,57.14c0.46,0,0.84-0.25,1.07-0.61h-2.15C91.86,56.89,92.25,57.14,92.7,57.14z"/>
		<path fill="#CCCCCC" d="M118.47,45.81c0-0.29-0.09-0.56-0.23-0.79c-0.19,0.75-0.41,1.48-0.7,2.17
			C118.08,46.97,118.47,46.43,118.47,45.81z"/>
		<path fill="#CCCCCC" d="M113.52,52.56c-0.67,0.55-1.39,1.06-2.18,1.5c0.14,0.04,0.29,0.06,0.45,0.06
			C112.69,54.12,113.43,53.44,113.52,52.56z"/>
		<circle fill="#CCCCCC" cx="118.61" cy="67.17" r="1.46"/>
		<circle fill="#CCCCCC" cx="115.49" cy="55.84" r="1.32"/>
		<circle fill="#CCCCCC" cx="131.86" cy="61.2" r="1.68"/>
		<circle fill="#CCCCCC" cx="125.21" cy="63.56" r="1.71"/>
		<circle fill="#CCCCCC" cx="120.09" cy="59.53" r="1.63"/>
		<circle fill="#CCCCCC" cx="122.81" cy="54.8" r="1.56"/>
		<path fill="#CCCCCC" d="M119.35,40.72c0,0.23,0.05,0.46,0.13,0.66c0-0.17-0.02-0.33-0.02-0.5c0-0.29,0.03-0.56,0.04-0.85
			C119.41,40.24,119.35,40.47,119.35,40.72z"/>
		<circle fill="#CCCCCC" cx="195.55" cy="26.97" r="1.7"/>
		<path fill="#CCCCCC" d="M142.32,26.18c-0.21-0.18-0.47-0.3-0.76-0.32C141.82,25.96,142.07,26.07,142.32,26.18z"/>
		<path fill="#CCCCCC" d="M131.44,24.33c-0.81,0-1.47,0.6-1.58,1.39c0.91-0.33,1.87-0.58,2.86-0.74
			C132.43,24.59,131.97,24.33,131.44,24.33z"/>
		<circle fill="#CCCCCC" cx="116.56" cy="23.66" r="1.49"/>
		<path fill="#CCCCCC" d="M87.33,54.8c0.61,0,1.13-0.38,1.33-0.92v-1.01c-0.21-0.54-0.72-0.92-1.33-0.92
			c-0.79,0-1.43,0.64-1.43,1.43S86.54,54.8,87.33,54.8z"/>
		<circle fill="#CCCCCC" cx="87.39" cy="35.12" r="1.3"/>
		<circle fill="#CCCCCC" cx="116.44" cy="18.36" r="1.65"/>
		<path fill="#CCCCCC" d="M86.22,30.29c0,0.94,0.76,1.7,1.7,1.7c0.27,0,0.52-0.07,0.75-0.18v-3.03c-0.23-0.11-0.48-0.18-0.75-0.18
			C86.98,28.59,86.22,29.35,86.22,30.29z"/>
		<circle fill="#CCCCCC" cx="101.97" cy="18.47" r="1.73"/>
		<path fill="#CCCCCC" d="M102.74,25.27c0.02-0.09,0.03-0.19,0.03-0.28c0-0.84-0.68-1.52-1.52-1.52s-1.52,0.68-1.52,1.52
			c0,0.08,0.01,0.15,0.02,0.23h1.36C101.67,25.22,102.21,25.24,102.74,25.27z"/>
		<circle fill="#CCCCCC" cx="153.64" cy="21.56" r="1.45"/>
		<path fill="#CCCCCC" d="M120.6,34.57c0,0.03,0.02,0.06,0.02,0.09c0.15-0.37,0.32-0.73,0.49-1.09
			C120.81,33.8,120.6,34.15,120.6,34.57z"/>
		<circle fill="#CCCCCC" cx="163.76" cy="16.56" r="1.61"/>
		<path fill="#CCCCCC" d="M126.15,25.04c-0.92,0-1.67,0.75-1.67,1.67c0,0.65,0.37,1.2,0.91,1.48c0.75-0.6,1.56-1.14,2.43-1.59
			C127.75,25.73,127.03,25.04,126.15,25.04z"/>
		<circle fill="#CCCCCC" cx="183.92" cy="17.98" r="1.42"/>
		<path fill="#CCCCCC" d="M207.37,24.55c0-0.98-0.8-1.78-1.78-1.78s-1.78,0.8-1.78,1.78c0,0.94,0.73,1.7,1.65,1.77
			c0.5-0.29,1.03-0.53,1.59-0.74C207.25,25.28,207.37,24.93,207.37,24.55z"/>
		<circle fill="#CCCCCC" cx="182.88" cy="23.51" r="1.46"/>
		<circle fill="#CCCCCC" cx="205.22" cy="19.31" r="1.61"/>
		<circle fill="#CCCCCC" cx="181.44" cy="13.72" r="1.54"/>
		<circle fill="#CCCCCC" cx="94.52" cy="14.52" r="1.47"/>
		<circle fill="#CCCCCC" cx="86.37" cy="47.75" r="1.55"/>
		<circle fill="#CCCCCC" cx="90.3" cy="19.3" r="1.53"/>
		<circle fill="#CCCCCC" cx="113.25" cy="13.81" r="1.48"/>
		<circle fill="#CCCCCC" cx="84.51" cy="26.77" r="1.39"/>
		<circle fill="#CCCCCC" cx="84.37" cy="59.01" r="1.38"/>
		<circle fill="#CCCCCC" cx="129.83" cy="69.16" r="1.65"/>
		<path fill="#CCCCCC" d="M91.31,24.17c-0.68,0-1.25,0.44-1.47,1.04h2.94C92.57,24.61,91.99,24.17,91.31,24.17z"/>
		<circle fill="#CCCCCC" cx="96.29" cy="20.81" r="1.54"/>
		<path fill="#CCCCCC" d="M220.54,27.57c0.91,0,1.65-0.74,1.65-1.65c0-0.91-0.74-1.65-1.65-1.65s-1.65,0.74-1.65,1.65
			c0,0.24,0.05,0.47,0.15,0.67c0.48,0.29,0.92,0.61,1.33,0.96C220.42,27.56,220.48,27.57,220.54,27.57z"/>
		<path fill="#CCCCCC" d="M178.7,45.8c-0.15-0.04-0.31-0.07-0.47-0.07c-0.97,0-1.76,0.79-1.77,1.76h2.24V45.8z"/>
		<path fill="#CCCCCC" d="M222.39,30.22c0.32,0.72,0.51,1.49,0.56,2.3c0.22-0.26,0.36-0.58,0.36-0.95
			C223.31,30.96,222.93,30.44,222.39,30.22z"/>
		<circle fill="#CCCCCC" cx="198.56" cy="21.15" r="1.32"/>
		<path fill="#CCCCCC" d="M204.95,42.77c-0.57-0.36-1.1-0.77-1.59-1.23c-0.13,0.21-0.23,0.44-0.23,0.7c0,0.28,0.11,0.52,0.25,0.74
			c0.45-0.12,0.92-0.21,1.42-0.21C204.85,42.77,204.9,42.77,204.95,42.77z"/>
		<path fill="#CCCCCC" d="M177.48,42.68c0.54,0,1.01-0.33,1.22-0.79V40.8c-0.21-0.47-0.67-0.79-1.22-0.79
			c-0.74,0-1.34,0.6-1.34,1.34S176.74,42.68,177.48,42.68z"/>
		<circle fill="#CCCCCC" cx="212.71" cy="19.18" r="1.25"/>
		<path fill="#CCCCCC" d="M209.66,24.9c0.68-0.1,1.38-0.16,2.1-0.16c0.18,0,0.34,0.01,0.52,0.02c-0.21-0.51-0.7-0.87-1.29-0.87
			C210.35,23.88,209.82,24.31,209.66,24.9z"/>
		<circle fill="#CCCCCC" cx="222" cy="20.34" r="1.58"/>
		<circle fill="#CCCCCC" cx="201.16" cy="27.02" r="1.61"/>
		<path fill="#CCCCCC" d="M178.05,36.13c0.23,0,0.45-0.05,0.65-0.13v-1.75h-2.31c-0.01,0.06-0.02,0.12-0.02,0.19
			C176.37,35.38,177.12,36.13,178.05,36.13z"/>
		<circle fill="#CCCCCC" cx="165.93" cy="36.6" r="1.54"/>
		<path fill="#CCCCCC" d="M188.78,35.52c0,0.8,0.65,1.45,1.45,1.45c0.8,0,1.45-0.65,1.45-1.45c0-0.55-0.31-1.02-0.75-1.26h-1.38
			C189.09,34.5,188.78,34.97,188.78,35.52z"/>
		<circle fill="#CCCCCC" cx="166.25" cy="41.93" r="1.52"/>
		<path fill="#CCCCCC" d="M209.78,45.97c0.25,0.59,0.4,1.23,0.4,1.9c0,0.03,0,0.07,0,0.1c0.16,0.03,0.33,0.05,0.5,0.07
			c0.08-0.19,0.13-0.4,0.13-0.62C210.82,46.74,210.38,46.18,209.78,45.97z"/>
		<path fill="#CCCCCC" d="M152.06,45.98c-0.96,0-1.75,0.78-1.75,1.75c0,0.87,0.63,1.58,1.46,1.72v-1.95h2
			C153.67,46.64,152.95,45.98,152.06,45.98z"/>
		<path fill="#CCCCCC" d="M199.51,37.5c0,0.9,0.73,1.63,1.63,1.63c0.12,0,0.24-0.02,0.36-0.04c-0.45-0.9-0.76-1.93-0.89-3.13
			C199.98,36.18,199.51,36.78,199.51,37.5z"/>
		<path fill="#CCCCCC" d="M188.22,47.53h2.24v-1.82c-0.28-0.33-0.7-0.55-1.17-0.55c-0.42,0-0.79,0.17-1.07,0.43V47.53z"/>
		<circle fill="#CCCCCC" cx="190.08" cy="40.85" r="1.45"/>
		<circle fill="#CCCCCC" cx="198.61" cy="32.34" r="1.74"/>
		<circle fill="#CCCCCC" cx="196.03" cy="39.49" r="1.48"/>
		<circle fill="#CCCCCC" cx="145.26" cy="10.88" r="1.73"/>
		<circle fill="#CCCCCC" cx="191.65" cy="16.47" r="1.58"/>
		<circle fill="#CCCCCC" cx="192.98" cy="22.72" r="1.31"/>
		<circle fill="#CCCCCC" cx="196.48" cy="2.63" r="1.73"/>
		<circle fill="#CCCCCC" cx="195.54" cy="8.42" r="1.29"/>
		<circle fill="#CCCCCC" cx="191.2" cy="10.7" r="1.59"/>
		<circle fill="#CCCCCC" cx="198.34" cy="14.53" r="1.74"/>
		<circle fill="#CCCCCC" cx="190.21" cy="4.03" r="1.73"/>
		<circle fill="#CCCCCC" cx="185.87" cy="2.15" r="1.27"/>
		<circle fill="#CCCCCC" cx="186.26" cy="10.97" r="1.36"/>
		<circle fill="#CCCCCC" cx="188.48" cy="21.33" r="1.28"/>
		<circle fill="#CCCCCC" cx="208.05" cy="9.6" r="1.35"/>
		<circle fill="#CCCCCC" cx="212.96" cy="4.4" r="1.65"/>
		<circle fill="#CCCCCC" cx="218.75" cy="2.55" r="1.72"/>
		<circle fill="#CCCCCC" cx="216.92" cy="21.35" r="1.76"/>
		<circle fill="#CCCCCC" cx="218.52" cy="13.8" r="1.76"/>
		<circle fill="#CCCCCC" cx="213.71" cy="11.2" r="1.78"/>
		<circle fill="#CCCCCC" cx="209.5" cy="15.55" r="1.66"/>
		<circle fill="#CCCCCC" cx="205.6" cy="3.06" r="1.65"/>
		<circle fill="#CCCCCC" cx="203.72" cy="13.97" r="1.33"/>
		<circle fill="#CCCCCC" cx="182.45" cy="6.21" r="1.65"/>
		<circle fill="#CCCCCC" cx="201.34" cy="7.21" r="1.42"/>
		<circle fill="#CCCCCC" cx="157.23" cy="12.76" r="1.66"/>
		<circle fill="#CCCCCC" cx="151.11" cy="9.9" r="1.52"/>
		<circle fill="#CCCCCC" cx="153.92" cy="16.36" r="1.59"/>
		<circle fill="#CCCCCC" cx="158.69" cy="2.23" r="1.75"/>
		<circle fill="#CCCCCC" cx="157.48" cy="6.89" r="1.47"/>
		<circle fill="#CCCCCC" cx="146.21" cy="16.26" r="1.46"/>
		<circle fill="#CCCCCC" cx="150.7" cy="3.13" r="1.72"/>
		<circle fill="#CCCCCC" cx="180.14" cy="1.92" r="1.37"/>
		<circle fill="#CCCCCC" cx="148.83" cy="23.93" r="1.49"/>
		<circle fill="#CCCCCC" cx="83.24" cy="42.7" r="1.7"/>
		<circle fill="#CCCCCC" cx="171.13" cy="7.06" r="1.56"/>
		<circle fill="#CCCCCC" cx="175.3" cy="3.73" r="1.5"/>
		<circle fill="#CCCCCC" cx="174.33" cy="16.25" r="1.37"/>
		<circle fill="#CCCCCC" cx="160.58" cy="21.59" r="1.45"/>
		<circle fill="#CCCCCC" cx="176.99" cy="10.45" r="1.43"/>
		<circle fill="#CCCCCC" cx="162.48" cy="11.77" r="1.51"/>
		<circle fill="#CCCCCC" cx="169.25" cy="12.84" r="1.25"/>
		<circle fill="#CCCCCC" cx="164.36" cy="6.7" r="1.32"/>
		<circle fill="#CCCCCC" cx="167.44" cy="2.48" r="1.69"/>
		<path fill="#CCCCCC" d="M217.42,55.79c-0.55,0.25-1.14,0.46-1.76,0.64c0.18,0.09,0.37,0.16,0.58,0.16
			C216.78,56.6,217.23,56.26,217.42,55.79z"/>
		<circle fill="#CCCCCC" cx="225.62" cy="16.21" r="1.54"/>
		<path fill="#CCCCCC" d="M200.16,51.12c-0.14-0.29-0.25-0.59-0.34-0.9v1.26C199.95,51.38,200.07,51.26,200.16,51.12z"/>
		<path fill="#CCCCCC" d="M175.71,56.53L175.71,56.53h-3.18c0.27,0.61,0.88,1.03,1.59,1.03S175.43,57.14,175.71,56.53z"/>
		<circle fill="#CCCCCC" cx="172.2" cy="60.77" r="1.47"/>
		<circle fill="#CCCCCC" cx="223.81" cy="38.52" r="1.57"/>
		<path fill="#CCCCCC" d="M167.13,56.62c0.15,0,0.3-0.04,0.43-0.09h-0.87C166.84,56.58,166.98,56.62,167.13,56.62z"/>
		<path fill="#CCCCCC" d="M224.63,44.25c0-0.81-0.66-1.47-1.47-1.47c-0.24,0-0.46,0.06-0.65,0.16c0.34,0.82,0.56,1.74,0.64,2.78
			c0,0,0,0,0.01,0C223.97,45.71,224.63,45.06,224.63,44.25z"/>
		<path fill="#CCCCCC" d="M203.7,55c0.03,0,0.07-0.01,0.1-0.01c-0.69-0.42-1.3-0.9-1.85-1.42C202.12,54.39,202.84,55,203.7,55z"/>
		<path fill="#CCCCCC" d="M128.25,56c0,0.75,0.61,1.37,1.37,1.37c0.61,0,1.12-0.41,1.3-0.96c-0.89-0.25-1.74-0.57-2.55-0.95
			C128.29,55.62,128.25,55.8,128.25,56z"/>
		<path fill="#CCCCCC" d="M197.02,56.53c0.03,0,0.05,0.02,0.08,0.02s0.05-0.01,0.08-0.02H197.02z"/>
		<circle fill="#CCCCCC" cx="141.44" cy="60.68" r="1.63"/>
		<path fill="#CCCCCC" d="M143.64,54.83c-0.44,0.25-0.89,0.49-1.36,0.7c0.06,0.01,0.11,0.04,0.18,0.04
			C142.98,55.57,143.42,55.26,143.64,54.83z"/>
		<circle fill="#CCCCCC" cx="135.84" cy="63.87" r="1.5"/>
		<path fill="#CCCCCC" d="M152.71,43.37c0.85,0,1.55-0.69,1.55-1.55s-0.69-1.55-1.55-1.55c-0.52,0-0.98,0.26-1.26,0.66
			c0,0.56-0.03,1.11-0.08,1.65C151.64,43.05,152.14,43.37,152.71,43.37z"/>
		<circle fill="#CCCCCC" cx="151.75" cy="59.35" r="1.37"/>
		<circle fill="#CCCCCC" cx="166.15" cy="60.32" r="1.29"/>
		<path fill="#CCCCCC" d="M161.66,57.44c0.58,0,1.07-0.39,1.24-0.91h-2.48C160.59,57.06,161.07,57.44,161.66,57.44z"/>
		<path fill="#CCCCCC" d="M151.5,55.2c0.1,0,0.19-0.01,0.28-0.03v-3.24c-0.09-0.02-0.18-0.03-0.28-0.03c-0.91,0-1.65,0.74-1.65,1.65
			S150.59,55.2,151.5,55.2z"/>
		<circle fill="#CCCCCC" cx="168.22" cy="65.42" r="1.74"/>
		<circle fill="#CCCCCC" cx="235.14" cy="52.08" r="1.41"/>
		<circle fill="#CCCCCC" cx="232.11" cy="4.07" r="1.72"/>
		<circle fill="#CCCCCC" cx="232.08" cy="9.92" r="1.8"/>
		<circle fill="#CCCCCC" cx="233.21" cy="27.96" r="1.76"/>
		<circle fill="#CCCCCC" cx="231.41" cy="16.06" r="1.79"/>
		<circle fill="#CCCCCC" cx="227.41" cy="1.9" r="1.25"/>
		<circle fill="#CCCCCC" cx="229.23" cy="21.88" r="1.63"/>
		<circle fill="#CCCCCC" cx="226.5" cy="9.11" r="1.43"/>
		<circle fill="#CCCCCC" cx="223.75" cy="4.07" r="1.31"/>
		<circle fill="#CCCCCC" cx="235.43" cy="33.2" r="1.49"/>
		<circle fill="#CCCCCC" cx="220.83" cy="8.82" r="1.69"/>
		<circle fill="#CCCCCC" cx="228.15" cy="47.28" r="1.3"/>
		<circle fill="#CCCCCC" cx="229.29" cy="39.51" r="1.6"/>
		<circle fill="#CCCCCC" cx="227.2" cy="27.26" r="1.35"/>
		<circle fill="#CCCCCC" cx="227.54" cy="33.81" r="1.52"/>
		<circle fill="#CCCCCC" cx="229.5" cy="53.51" r="1.41"/>
		<circle fill="#CCCCCC" cx="228.92" cy="65.62" r="1.62"/>
		<circle fill="#CCCCCC" cx="234.17" cy="44.67" r="1.55"/>
		<circle fill="#CCCCCC" cx="234.66" cy="38.53" r="1.47"/>
		<circle fill="#CCCCCC" cx="232.1" cy="61.81" r="1.64"/>
		<circle fill="#CCCCCC" cx="77.81" cy="29.67" r="1.74"/>
		<circle fill="#CCCCCC" cx="269.17" cy="52.16" r="1.32"/>
		<circle fill="#CCCCCC" cx="265.24" cy="37" r="1.63"/>
		<circle fill="#CCCCCC" cx="270.02" cy="39.74" r="1.58"/>
		<circle fill="#CCCCCC" cx="265.15" cy="28.02" r="1.57"/>
		<circle fill="#CCCCCC" cx="267.54" cy="22.27" r="1.68"/>
		<circle fill="#CCCCCC" cx="269.41" cy="46.17" r="1.32"/>
		<circle fill="#CCCCCC" cx="272.96" cy="19.86" r="1.64"/>
		<circle fill="#CCCCCC" cx="276.38" cy="36.18" r="1.38"/>
		<circle fill="#CCCCCC" cx="272.77" cy="55.57" r="1.6"/>
		<circle fill="#CCCCCC" cx="276.04" cy="29.15" r="1.55"/>
		<circle fill="#CCCCCC" cx="293.57" cy="18.08" r="1.43"/>
		<circle fill="#CCCCCC" cx="274.23" cy="44.23" r="1.69"/>
		<circle fill="#CCCCCC" cx="293.57" cy="34.27" r="1.51"/>
		<circle fill="#CCCCCC" cx="293.12" cy="28.48" r="1.73"/>
		<circle fill="#CCCCCC" cx="294.82" cy="63.66" r="1.3"/>
		<circle fill="#CCCCCC" cx="290.67" cy="40.9" r="1.49"/>
		<circle fill="#CCCCCC" cx="293.19" cy="11.7" r="1.71"/>
		<circle fill="#CCCCCC" cx="263.93" cy="53.72" r="1.76"/>
		<circle fill="#CCCCCC" cx="264.15" cy="45.75" r="1.75"/>
		<circle fill="#CCCCCC" cx="292.71" cy="4.91" r="1.6"/>
		<circle fill="#CCCCCC" cx="279.71" cy="21.22" r="1.26"/>
		<circle fill="#CCCCCC" cx="287.65" cy="29.21" r="1.72"/>
		<circle fill="#CCCCCC" cx="287.62" cy="35.39" r="1.65"/>
		<circle fill="#CCCCCC" cx="283.81" cy="52.8" r="1.28"/>
		<circle fill="#CCCCCC" cx="285.12" cy="48.16" r="1.71"/>
		<circle fill="#CCCCCC" cx="285.52" cy="42.3" r="1.49"/>
		<circle fill="#CCCCCC" cx="288.88" cy="57.88" r="1.64"/>
		<circle fill="#CCCCCC" cx="290.33" cy="46.69" r="1.4"/>
		<circle fill="#CCCCCC" cx="287.97" cy="63.48" r="1.59"/>
		<circle fill="#CCCCCC" cx="285.4" cy="17.31" r="1.57"/>
		<circle fill="#CCCCCC" cx="279.41" cy="44.52" r="1.35"/>
		<circle fill="#CCCCCC" cx="276.97" cy="50.56" r="1.61"/>
		<circle fill="#CCCCCC" cx="295.18" cy="48.42" r="1.66"/>
		<circle fill="#CCCCCC" cx="281.31" cy="32.42" r="1.75"/>
		<circle fill="#CCCCCC" cx="283.12" cy="58.6" r="1.52"/>
		<circle fill="#CCCCCC" cx="274" cy="61.07" r="1.62"/>
		<circle fill="#CCCCCC" cx="281.8" cy="38.68" r="1.57"/>
		<circle fill="#CCCCCC" cx="279.53" cy="62.6" r="1.66"/>
		<circle fill="#CCCCCC" cx="273.6" cy="66.53" r="1.75"/>
		<circle fill="#CCCCCC" cx="278.27" cy="56.24" r="1.52"/>
		<circle fill="#CCCCCC" cx="306.92" cy="38.57" r="1.27"/>
		<circle fill="#CCCCCC" cx="304.94" cy="31.46" r="1.33"/>
		<circle fill="#CCCCCC" cx="303.21" cy="26.44" r="1.73"/>
		<circle fill="#CCCCCC" cx="305.04" cy="15.05" r="1.39"/>
		<circle fill="#CCCCCC" cx="305.49" cy="44.51" r="1.7"/>
		<circle fill="#CCCCCC" cx="306.14" cy="61.92" r="1.79"/>
		<circle fill="#CCCCCC" cx="312.16" cy="60.59" r="1.49"/>
		<circle fill="#CCCCCC" cx="310.08" cy="50.09" r="1.28"/>
		<circle fill="#CCCCCC" cx="307.86" cy="55.65" r="1.52"/>
		<circle fill="#CCCCCC" cx="288.66" cy="22.27" r="1.68"/>
		<circle fill="#CCCCCC" cx="304.54" cy="50.97" r="1.65"/>
		<circle fill="#CCCCCC" cx="299.44" cy="51.38" r="1.42"/>
		<circle fill="#CCCCCC" cx="298.79" cy="14.83" r="1.59"/>
		<circle fill="#CCCCCC" cx="299.75" cy="44.91" r="1.79"/>
		<circle fill="#CCCCCC" cx="311.17" cy="43.69" r="1.69"/>
		<circle fill="#CCCCCC" cx="299.25" cy="31.89" r="1.47"/>
		<circle fill="#CCCCCC" cx="309.46" cy="33.53" r="1.73"/>
		<circle fill="#CCCCCC" cx="300.86" cy="57.36" r="1.46"/>
		<circle fill="#CCCCCC" cx="311.42" cy="17.68" r="1.54"/>
		<circle fill="#CCCCCC" cx="298.5" cy="2.56" r="1.71"/>
		<circle fill="#CCCCCC" cx="301.18" cy="38.34" r="1.79"/>
		<circle fill="#CCCCCC" cx="307.01" cy="5.75" r="1.32"/>
		<circle fill="#CCCCCC" cx="313.67" cy="64.96" r="1.33"/>
		<circle fill="#CCCCCC" cx="308.4" cy="23.54" r="1.34"/>
		<circle fill="#CCCCCC" cx="312.4" cy="27.11" r="1.74"/>
		<circle fill="#CCCCCC" cx="312.64" cy="4.34" r="1.35"/>
		<circle fill="#CCCCCC" cx="304.32" cy="2.19" r="1.76"/>
		<circle fill="#CCCCCC" cx="301.85" cy="20.75" r="1.62"/>
		<circle fill="#CCCCCC" cx="298.85" cy="7.76" r="1.69"/>
		<circle fill="#CCCCCC" cx="303.61" cy="9.58" r="1.25"/>
		<circle fill="#CCCCCC" cx="310.46" cy="11.63" r="1.26"/>
		<circle fill="#CCCCCC" cx="315.33" cy="39.93" r="1.33"/>
		<circle fill="#CCCCCC" cx="314.85" cy="34.36" r="1.26"/>
		<circle fill="#CCCCCC" cx="314.99" cy="56.36" r="1.71"/>
		<circle fill="#CCCCCC" cx="315.57" cy="50.08" r="1.35"/>
		<circle fill="#CCCCCC" cx="316.75" cy="27.39" r="1.52"/>
		<circle fill="#CCCCCC" cx="316.21" cy="11.52" r="1.32"/>
		<circle fill="#CCCCCC" cx="316.49" cy="45.06" r="1.32"/>
		<circle fill="#CCCCCC" cx="316.93" cy="2.79" r="1.32"/>
		<circle fill="#CCCCCC" cx="316.09" cy="20.34" r="1.42"/>
		<circle fill="#CCCCCC" cx="236.61" cy="2.53" r="1.74"/>
		<circle fill="#CCCCCC" cx="245.68" cy="12.87" r="1.49"/>
		<circle fill="#CCCCCC" cx="240.31" cy="7.15" r="1.34"/>
		<circle fill="#CCCCCC" cx="242.46" cy="2.24" r="1.49"/>
		<circle fill="#CCCCCC" cx="247.55" cy="5.54" r="1.4"/>
		<circle fill="#CCCCCC" cx="286.82" cy="12.05" r="1.59"/>
		<circle fill="#CCCCCC" cx="253.05" cy="9.62" r="1.46"/>
		<path fill="#CCCCCC" d="M221.24,53.32c0.97,0,1.77-0.79,1.77-1.77c0-0.45-0.17-0.86-0.45-1.17c-0.4,1.07-0.98,2.04-1.71,2.88
			C220.97,53.3,221.11,53.32,221.24,53.32z"/>
		<circle fill="#CCCCCC" cx="259.64" cy="40.58" r="1.69"/>
		<circle fill="#CCCCCC" cx="81.07" cy="34.66" r="1.3"/>
		<circle fill="#CCCCCC" cx="236.6" cy="22.71" r="1.75"/>
		<circle fill="#CCCCCC" cx="259.19" cy="22.1" r="1.44"/>
		<circle fill="#CCCCCC" cx="253.25" cy="3.27" r="1.31"/>
		<circle fill="#CCCCCC" cx="259.11" cy="48.75" r="1.66"/>
		<circle fill="#CCCCCC" cx="207.09" cy="63.12" r="1.5"/>
		<circle fill="#CCCCCC" cx="260.16" cy="58.98" r="1.66"/>
		<circle fill="#CCCCCC" cx="259.58" cy="64.29" r="1.78"/>
		<circle fill="#CCCCCC" cx="258.3" cy="16.04" r="1.5"/>
		<circle fill="#CCCCCC" cx="259.97" cy="3.45" r="1.54"/>
		<circle fill="#CCCCCC" cx="255.14" cy="26.82" r="1.66"/>
		<circle fill="#CCCCCC" cx="258.47" cy="10.58" r="1.54"/>
		<circle fill="#CCCCCC" cx="208.68" cy="68.46" r="1.38"/>
		<circle fill="#CCCCCC" cx="144.41" cy="4.52" r="1.64"/>
		<circle fill="#CCCCCC" cx="76.82" cy="49.82" r="1.78"/>
		<circle fill="#CCCCCC" cx="73.5" cy="57.01" r="1.67"/>
		<circle fill="#CCCCCC" cx="195.66" cy="62.25" r="1.49"/>
		<circle fill="#CCCCCC" cx="80.74" cy="54.76" r="1.29"/>
		<circle fill="#CCCCCC" cx="70.83" cy="39.12" r="1.5"/>
		<circle fill="#CCCCCC" cx="78.63" cy="67.26" r="1.32"/>
		<circle fill="#CCCCCC" cx="77.63" cy="44.08" r="1.54"/>
		<circle fill="#CCCCCC" cx="77.32" cy="38.86" r="1.4"/>
		<circle fill="#CCCCCC" cx="71.31" cy="45.06" r="1.64"/>
		<circle fill="#CCCCCC" cx="159.03" cy="61.24" r="1.25"/>
		<circle fill="#CCCCCC" cx="187.35" cy="63.41" r="1.29"/>
		<path fill="#CCCCCC" d="M185.17,57.78c0,0.89,0.72,1.62,1.62,1.62s1.62-0.72,1.62-1.62c0-0.51-0.24-0.95-0.6-1.25h-2.04
			C185.4,56.83,185.17,57.27,185.17,57.78z"/>
		<circle fill="#CCCCCC" cx="72.41" cy="26.54" r="1.59"/>
		<circle fill="#CCCCCC" cx="194.6" cy="67.45" r="1.39"/>
		<circle fill="#CCCCCC" cx="73.02" cy="33.71" r="1.76"/>
		<circle fill="#CCCCCC" cx="109.61" cy="58.39" r="1.27"/>
		<circle fill="#CCCCCC" cx="73.42" cy="20.72" r="1.29"/>
		<circle fill="#CCCCCC" cx="103.23" cy="61.25" r="1.71"/>
		<circle fill="#CCCCCC" cx="251.07" cy="15.82" r="1.48"/>
		<circle fill="#CCCCCC" cx="268.3" cy="14.72" r="1.39"/>
		<circle fill="#CCCCCC" cx="266.8" cy="4.33" r="1.77"/>
		<circle fill="#CCCCCC" cx="270.15" cy="32.9" r="1.79"/>
		<circle fill="#CCCCCC" cx="272.33" cy="26.02" r="1.75"/>
		<circle fill="#CCCCCC" cx="259.87" cy="28.98" r="1.45"/>
		<circle fill="#CCCCCC" cx="263.62" cy="18.5" r="1.29"/>
		<circle fill="#CCCCCC" cx="246.19" cy="37.96" r="1.71"/>
		<circle fill="#CCCCCC" cx="247.51" cy="24.51" r="1.35"/>
		<circle fill="#CCCCCC" cx="260.49" cy="34.24" r="1.79"/>
		<circle fill="#CCCCCC" cx="272.62" cy="11.01" r="1.58"/>
		<circle fill="#CCCCCC" cx="279.82" cy="10.95" r="1.44"/>
		<circle fill="#CCCCCC" cx="284.16" cy="7.58" r="1.73"/>
		<circle fill="#CCCCCC" cx="282.19" cy="26.67" r="1.49"/>
		<circle fill="#CCCCCC" cx="286.69" cy="3.24" r="1.54"/>
		<circle fill="#CCCCCC" cx="244.39" cy="30.05" r="1.62"/>
		<circle fill="#CCCCCC" cx="278.92" cy="1.58" r="1.29"/>
		<circle fill="#CCCCCC" cx="277.53" cy="15.45" r="1.57"/>
		<circle fill="#CCCCCC" cx="273.16" cy="4.01" r="1.79"/>
		<circle fill="#CCCCCC" cx="278.95" cy="5.6" r="1.75"/>
		<circle fill="#CCCCCC" cx="264.39" cy="10.34" r="1.27"/>
		<circle fill="#CCCCCC" cx="254.51" cy="34.02" r="1.4"/>
		<circle fill="#CCCCCC" cx="251.67" cy="50.51" r="1.27"/>
		<circle fill="#CCCCCC" cx="241.98" cy="35.08" r="1.26"/>
		<circle fill="#CCCCCC" cx="252.66" cy="21.28" r="1.54"/>
		<circle fill="#CCCCCC" cx="251.7" cy="38.39" r="1.58"/>
		<circle fill="#CCCCCC" cx="253.71" cy="45.2" r="1.43"/>
		<circle fill="#CCCCCC" cx="251.25" cy="56.24" r="1.44"/>
		<circle fill="#CCCCCC" cx="256.37" cy="55.05" r="1.48"/>
		<circle fill="#CCCCCC" cx="252.47" cy="63.04" r="1.37"/>
		<circle fill="#CCCCCC" cx="249.74" cy="30.11" r="1.73"/>
		<circle fill="#CCCCCC" cx="237.04" cy="17.33" r="1.37"/>
		<circle fill="#CCCCCC" cx="239" cy="12.31" r="1.68"/>
		<circle fill="#CCCCCC" cx="241.94" cy="24.17" r="1.77"/>
		<circle fill="#CCCCCC" cx="247.88" cy="43.67" r="1.38"/>
		<circle fill="#CCCCCC" cx="244.4" cy="18.82" r="1.7"/>
		<circle fill="#CCCCCC" cx="243.59" cy="48.51" r="1.8"/>
		<circle fill="#CCCCCC" cx="239.18" cy="29.04" r="1.29"/>
		<circle fill="#CCCCCC" cx="246.5" cy="52.6" r="1.53"/>
		<circle fill="#CCCCCC" cx="240.83" cy="41.74" r="1.71"/>
		<circle fill="#CCCCCC" cx="295.66" cy="78.04" r="1.48"/>
		<circle fill="#CCCCCC" cx="112.32" cy="72.16" r="1.26"/>
		<circle fill="#CCCCCC" cx="112.67" cy="78.12" r="1.61"/>
		<circle fill="#CCCCCC" cx="114.85" cy="62.5" r="1.75"/>
		<circle fill="#CCCCCC" cx="107.88" cy="63.57" r="1.76"/>
		<circle fill="#CCCCCC" cx="111" cy="67.61" r="1.49"/>
		<circle fill="#CCCCCC" cx="120.03" cy="79.02" r="1.54"/>
		<circle fill="#CCCCCC" cx="125.17" cy="77.65" r="1.76"/>
		<circle fill="#CCCCCC" cx="143.93" cy="22.73" r="1.26"/>
		<circle fill="#CCCCCC" cx="117.28" cy="74.72" r="1.35"/>
		<circle fill="#CCCCCC" cx="106.15" cy="76.5" r="1.29"/>
		<circle fill="#CCCCCC" cx="98.7" cy="74.71" r="1.56"/>
		<circle fill="#CCCCCC" cx="7.96" cy="56.27" r="1.67"/>
		<circle fill="#CCCCCC" cx="94.27" cy="63.8" r="1.69"/>
		<circle fill="#CCCCCC" cx="91.95" cy="72.07" r="1.3"/>
		<circle fill="#CCCCCC" cx="89.66" cy="60.38" r="1.56"/>
		<circle fill="#CCCCCC" cx="128.84" cy="74.5" r="1.66"/>
		<circle fill="#CCCCCC" cx="104.87" cy="69.28" r="1.63"/>
		<circle fill="#CCCCCC" cx="98.41" cy="58.31" r="1.64"/>
		<circle fill="#CCCCCC" cx="100.91" cy="79.08" r="1.36"/>
		<circle fill="#CCCCCC" cx="98.51" cy="67.98" r="1.35"/>
		<circle fill="#CCCCCC" cx="141.53" cy="66.46" r="1.57"/>
		<circle fill="#CCCCCC" cx="154.1" cy="64.08" r="1.41"/>
		<path fill="#CCCCCC" d="M157.97,56.53h-2.89c0.21,0.61,0.77,1.05,1.45,1.05S157.77,57.14,157.97,56.53z"/>
		<circle fill="#CCCCCC" cx="154.83" cy="70.14" r="1.52"/>
		<circle fill="#CCCCCC" cx="150.42" cy="77.74" r="1.38"/>
		<circle fill="#CCCCCC" cx="130.69" cy="79.19" r="1.71"/>
		<circle fill="#CCCCCC" cx="163.08" cy="64.83" r="1.61"/>
		<circle fill="#CCCCCC" cx="158.1" cy="77.24" r="1.45"/>
		<circle fill="#CCCCCC" cx="163.75" cy="72.61" r="1.28"/>
		<circle fill="#CCCCCC" cx="159.76" cy="68.87" r="1.57"/>
		<circle fill="#CCCCCC" cx="149.56" cy="71.98" r="1.73"/>
		<circle fill="#CCCCCC" cx="147.89" cy="65.22" r="1.33"/>
		<circle fill="#CCCCCC" cx="139.58" cy="74.74" r="1.5"/>
		<circle fill="#CCCCCC" cx="136.43" cy="79.05" r="1.33"/>
		<circle fill="#CCCCCC" cx="134.26" cy="74.73" r="1.76"/>
		<circle fill="#CCCCCC" cx="136.33" cy="69.37" r="1.52"/>
		<circle fill="#CCCCCC" cx="144.07" cy="72.11" r="1.51"/>
		<circle fill="#CCCCCC" cx="146.97" cy="56.79" r="1.39"/>
		<circle fill="#CCCCCC" cx="87.54" cy="66.5" r="1.25"/>
		<circle fill="#CCCCCC" cx="143.05" cy="78.84" r="1.36"/>
		<circle fill="#CCCCCC" cx="56.48" cy="75.81" r="1.52"/>
		<circle fill="#CCCCCC" cx="35.48" cy="65.37" r="1.59"/>
		<circle fill="#CCCCCC" cx="37.48" cy="76.47" r="1.69"/>
		<circle fill="#CCCCCC" cx="32.46" cy="71.64" r="1.39"/>
		<circle fill="#CCCCCC" cx="30.12" cy="78.33" r="1.41"/>
		<circle fill="#CCCCCC" cx="41.8" cy="61.64" r="1.64"/>
		<circle fill="#CCCCCC" cx="39.93" cy="69.95" r="1.32"/>
		<circle fill="#CCCCCC" cx="44.47" cy="77.44" r="1.42"/>
		<circle fill="#CCCCCC" cx="47.61" cy="71.01" r="1.75"/>
		<circle fill="#CCCCCC" cx="27.12" cy="72.38" r="1.72"/>
		<circle fill="#CCCCCC" cx="22.42" cy="78.53" r="1.34"/>
		<circle fill="#CCCCCC" cx="12.76" cy="74.33" r="1.63"/>
		<circle fill="#CCCCCC" cx="23.11" cy="57.22" r="1.58"/>
		<circle fill="#CCCCCC" cx="85.13" cy="77.94" r="1.51"/>
		<circle fill="#CCCCCC" cx="10.51" cy="62.03" r="1.36"/>
		<circle fill="#CCCCCC" cx="11.61" cy="79.24" r="1.47"/>
		<circle fill="#CCCCCC" cx="48.22" cy="60.94" r="1.33"/>
		<circle fill="#CCCCCC" cx="21.96" cy="72.39" r="1.65"/>
		<circle fill="#CCCCCC" cx="18.41" cy="67.27" r="1.48"/>
		<circle fill="#CCCCCC" cx="17.29" cy="76.04" r="1.62"/>
		<circle fill="#CCCCCC" cx="14.63" cy="57.77" r="1.36"/>
		<circle fill="#CCCCCC" cx="72.1" cy="71.15" r="1.3"/>
		<circle fill="#CCCCCC" cx="73.34" cy="78.33" r="1.5"/>
		<circle fill="#CCCCCC" cx="69.08" cy="52.32" r="1.4"/>
		<circle fill="#CCCCCC" cx="71.65" cy="65.51" r="1.37"/>
		<circle fill="#CCCCCC" cx="75.86" cy="61.93" r="1.79"/>
		<circle fill="#CCCCCC" cx="84.75" cy="72.18" r="1.56"/>
		<circle fill="#CCCCCC" cx="82.24" cy="63.49" r="1.45"/>
		<circle fill="#CCCCCC" cx="79.4" cy="78.64" r="1.43"/>
		<circle fill="#CCCCCC" cx="77.27" cy="73.41" r="1.34"/>
		<circle fill="#CCCCCC" cx="67.98" cy="76.46" r="1.26"/>
		<circle fill="#CCCCCC" cx="166.39" cy="78.36" r="1.31"/>
		<circle fill="#CCCCCC" cx="58.69" cy="69.69" r="1.63"/>
		<circle fill="#CCCCCC" cx="57.91" cy="79.3" r="1.56"/>
		<circle fill="#CCCCCC" cx="51.2" cy="75.86" r="1.28"/>
		<circle fill="#CCCCCC" cx="53.85" cy="67.19" r="1.63"/>
		<circle fill="#CCCCCC" cx="66.92" cy="69.42" r="1.65"/>
		<circle fill="#CCCCCC" cx="63.68" cy="78.95" r="1.44"/>
		<circle fill="#CCCCCC" cx="63" cy="72.74" r="1.47"/>
		<circle fill="#CCCCCC" cx="60.84" cy="61.94" r="1.71"/>
		<circle fill="#CCCCCC" cx="92.66" cy="78.2" r="1.6"/>
		<circle fill="#CCCCCC" cx="242.36" cy="61.74" r="1.34"/>
		<circle fill="#CCCCCC" cx="265.98" cy="67.52" r="1.45"/>
		<circle fill="#CCCCCC" cx="259.73" cy="71.47" r="1.64"/>
		<circle fill="#CCCCCC" cx="263.81" cy="74.93" r="1.42"/>
		<circle fill="#CCCCCC" cx="269.28" cy="76.67" r="1.59"/>
		<circle fill="#CCCCCC" cx="262.85" cy="79.32" r="1.58"/>
		<circle fill="#CCCCCC" cx="271.93" cy="71.52" r="1.68"/>
		<circle fill="#CCCCCC" cx="277.62" cy="72.19" r="1.32"/>
		<circle fill="#CCCCCC" cx="280.65" cy="67.49" r="1.34"/>
		<circle fill="#CCCCCC" cx="275.62" cy="77.93" r="1.66"/>
		<circle fill="#CCCCCC" cx="267.63" cy="60.93" r="1.34"/>
		<circle fill="#CCCCCC" cx="248.18" cy="59.94" r="1.35"/>
		<circle fill="#CCCCCC" cx="244.17" cy="71.97" r="1.77"/>
		<circle fill="#CCCCCC" cx="245.09" cy="66.05" r="1.68"/>
		<circle fill="#CCCCCC" cx="244.01" cy="77.84" r="1.66"/>
		<circle fill="#CCCCCC" cx="252.46" cy="74.63" r="1.78"/>
		<circle fill="#CCCCCC" cx="254.99" cy="68.44" r="1.72"/>
		<circle fill="#CCCCCC" cx="249.48" cy="69.84" r="1.66"/>
		<circle fill="#CCCCCC" cx="256.97" cy="78.21" r="1.37"/>
		<circle fill="#CCCCCC" cx="250.41" cy="79.02" r="1.52"/>
		<circle fill="#CCCCCC" cx="281.31" cy="77.64" r="1.79"/>
		<circle fill="#CCCCCC" cx="304.56" cy="73" r="1.36"/>
		<circle fill="#CCCCCC" cx="307.61" cy="68.59" r="1.72"/>
		<circle fill="#CCCCCC" cx="310.28" cy="77.42" r="1.35"/>
		<circle fill="#CCCCCC" cx="303.58" cy="78.22" r="1.77"/>
		<circle fill="#CCCCCC" cx="312" cy="71.92" r="1.7"/>
		<circle fill="#CCCCCC" cx="316.98" cy="67.11" r="1.71"/>
		<circle fill="#CCCCCC" cx="283.64" cy="72.62" r="1.31"/>
		<circle fill="#CCCCCC" cx="315.51" cy="78.96" r="1.27"/>
		<circle fill="#CCCCCC" cx="300.89" cy="65.96" r="1.52"/>
		<circle fill="#CCCCCC" cx="316.37" cy="73.79" r="1.27"/>
		<circle fill="#CCCCCC" cx="286.64" cy="78.4" r="1.69"/>
		<circle fill="#CCCCCC" cx="291.89" cy="53.4" r="1.35"/>
		<circle fill="#CCCCCC" cx="290.17" cy="74.59" r="1.58"/>
		<circle fill="#CCCCCC" cx="286.61" cy="68.27" r="1.67"/>
		<circle fill="#CCCCCC" cx="296.77" cy="24.84" r="1.26"/>
		<circle fill="#CCCCCC" cx="299.07" cy="72.33" r="1.31"/>
		<circle fill="#CCCCCC" cx="295.69" cy="39.95" r="1.72"/>
		<circle fill="#CCCCCC" cx="169.29" cy="70.15" r="1.76"/>
		<circle fill="#CCCCCC" cx="293.75" cy="69.78" r="1.39"/>
		<circle fill="#CCCCCC" cx="295.54" cy="58.54" r="1.61"/>
		<circle fill="#CCCCCC" cx="188.02" cy="78.83" r="1.54"/>
		<circle fill="#CCCCCC" cx="194.34" cy="77.95" r="1.57"/>
		<circle fill="#CCCCCC" cx="196.18" cy="72.75" r="1.7"/>
		<circle fill="#CCCCCC" cx="188.54" cy="73.47" r="1.37"/>
		<circle fill="#CCCCCC" cx="192.53" cy="58.02" r="1.46"/>
		<circle fill="#CCCCCC" cx="206.11" cy="74.98" r="1.59"/>
		<circle fill="#CCCCCC" cx="202.41" cy="59.41" r="1.51"/>
		<circle fill="#CCCCCC" cx="201.79" cy="68.25" r="1.7"/>
		<circle fill="#CCCCCC" cx="200.62" cy="77.76" r="1.65"/>
		<circle fill="#CCCCCC" cx="208.37" cy="79.31" r="1.74"/>
		<circle fill="#CCCCCC" cx="174.61" cy="78.72" r="1.48"/>
		<circle fill="#CCCCCC" cx="186.57" cy="68.62" r="1.74"/>
		<circle fill="#CCCCCC" cx="174.48" cy="66.15" r="1.53"/>
		<circle fill="#CCCCCC" cx="170.93" cy="75.05" r="1.61"/>
		<circle fill="#CCCCCC" cx="175.65" cy="72.09" r="1.35"/>
		<circle fill="#CCCCCC" cx="179.97" cy="61.34" r="1.54"/>
		<circle fill="#CCCCCC" cx="181.32" cy="73.16" r="1.38"/>
		<circle fill="#CCCCCC" cx="180.76" cy="78.03" r="1.25"/>
		<circle fill="#CCCCCC" cx="242.21" cy="56.31" r="1.78"/>
		<circle fill="#CCCCCC" cx="180.72" cy="67.39" r="1.31"/>
		<circle fill="#CCCCCC" cx="231.59" cy="79.24" r="1.46"/>
		<circle fill="#CCCCCC" cx="210.37" cy="58.89" r="1.34"/>
		<circle fill="#CCCCCC" cx="232.16" cy="71.37" r="1.63"/>
		<circle fill="#CCCCCC" cx="228.88" cy="76.2" r="1.3"/>
		<circle fill="#CCCCCC" cx="237.87" cy="72" r="1.26"/>
		<circle fill="#CCCCCC" cx="237.45" cy="66.13" r="1.27"/>
		<circle fill="#CCCCCC" cx="226.72" cy="70.54" r="1.35"/>
		<circle fill="#CCCCCC" cx="238.57" cy="48.47" r="1.55"/>
		<circle fill="#CCCCCC" cx="237.28" cy="77.59" r="1.52"/>
		<circle fill="#CCCCCC" cx="235.62" cy="57.77" r="1.7"/>
		<circle fill="#CCCCCC" cx="215.04" cy="67.03" r="1.67"/>
		<circle fill="#CCCCCC" cx="214.6" cy="73.11" r="1.38"/>
		<circle fill="#CCCCCC" cx="214.32" cy="78.19" r="1.64"/>
		<circle fill="#CCCCCC" cx="215.64" cy="61.61" r="1.66"/>
		<circle fill="#CCCCCC" cx="221.66" cy="72.22" r="1.25"/>
		<circle fill="#CCCCCC" cx="225.33" cy="57.36" r="1.48"/>
		<circle fill="#CCCCCC" cx="222.14" cy="77.79" r="1.6"/>
		<circle fill="#CCCCCC" cx="221.47" cy="61.24" r="1.51"/>
		<circle fill="#CCCCCC" cx="222.02" cy="66.73" r="1.71"/>
		<circle fill="#CCCCCC" cx="122.33" cy="71.87" r="1.37"/>
		<circle fill="#CCCCCC" cx="60.64" cy="42.94" r="1.3"/>
		<circle fill="#CCCCCC" cx="60.81" cy="55.47" r="1.4"/>
		<circle fill="#CCCCCC" cx="60.05" cy="49.67" r="1.46"/>
		<circle fill="#CCCCCC" cx="56.08" cy="10.89" r="1.5"/>
		<circle fill="#CCCCCC" cx="57.66" cy="30.23" r="1.43"/>
		<circle fill="#CCCCCC" cx="65.18" cy="48.3" r="1.37"/>
		<circle fill="#CCCCCC" cx="66.03" cy="41.47" r="1.26"/>
		<circle fill="#CCCCCC" cx="62.54" cy="35.97" r="1.27"/>
		<circle fill="#CCCCCC" cx="66.44" cy="25.76" r="1.77"/>
		<circle fill="#CCCCCC" cx="57.42" cy="38.14" r="1.65"/>
		<circle fill="#CCCCCC" cx="71.61" cy="5.66" r="1.41"/>
		<circle fill="#CCCCCC" cx="67.54" cy="19.4" r="1.69"/>
		<circle fill="#CCCCCC" cx="70.83" cy="1.58" r="1.58"/>
		<circle fill="#CCCCCC" cx="65.87" cy="64.67" r="1.69"/>
		<circle fill="#CCCCCC" cx="52.24" cy="36.67" r="1.66"/>
		<circle fill="#CCCCCC" cx="54.94" cy="48.4" r="1.49"/>
		<circle fill="#CCCCCC" cx="71.79" cy="12.1" r="1.65"/>
		<circle fill="#CCCCCC" cx="54.1" cy="61.01" r="1.4"/>
		<circle fill="#CCCCCC" cx="52.81" cy="43.72" r="1.7"/>
		<circle fill="#CCCCCC" cx="51.66" cy="30.76" r="1.54"/>
		<circle fill="#CCCCCC" cx="55.04" cy="54.62" r="1.26"/>
		<circle fill="#CCCCCC" cx="52.52" cy="23.93" r="1.61"/>
		<circle fill="#CCCCCC" cx="51.48" cy="8.36" r="1.46"/>
		<circle fill="#CCCCCC" cx="51.9" cy="2.38" r="1.54"/>
		<circle fill="#CCCCCC" cx="55.27" cy="18.1" r="1.6"/>
		<circle fill="#CCCCCC" cx="47.17" cy="41.82" r="1.33"/>
		<circle fill="#CCCCCC" cx="51.05" cy="15.04" r="1.34"/>
		<circle fill="#CCCCCC" cx="56.06" cy="4.92" r="1.65"/>
		<circle fill="#CCCCCC" cx="11.88" cy="49.21" r="1.51"/>
		<circle fill="#CCCCCC" cx="67" cy="58.83" r="1.56"/>
		<circle fill="#CCCCCC" cx="49.94" cy="52.78" r="1.45"/>
		<circle fill="#CCCCCC" cx="65.96" cy="3.03" r="1.58"/>
		<circle fill="#CCCCCC" cx="66.48" cy="8.84" r="1.52"/>
		<circle fill="#CCCCCC" cx="67.43" cy="33.26" r="1.26"/>
		<circle fill="#CCCCCC" cx="65.03" cy="14.76" r="1.58"/>
		<circle fill="#CCCCCC" cx="59.73" cy="22.52" r="1.57"/>
		<circle fill="#CCCCCC" cx="62.89" cy="29.38" r="1.5"/>
		<circle fill="#CCCCCC" cx="60.01" cy="14.53" r="1.38"/>
		<circle fill="#CCCCCC" cx="60.37" cy="2.32" r="1.38"/>
		<circle fill="#CCCCCC" cx="60.99" cy="7.54" r="1.33"/>
		<circle fill="#CCCCCC" cx="88.23" cy="13.69" r="1.64"/>
		<circle fill="#CCCCCC" cx="121.81" cy="16.23" r="1.36"/>
		<circle fill="#CCCCCC" cx="122.44" cy="2.35" r="1.58"/>
		<circle fill="#CCCCCC" cx="128.13" cy="12.2" r="1.43"/>
		<circle fill="#CCCCCC" cx="126.04" cy="18.86" r="1.69"/>
		<circle fill="#CCCCCC" cx="122.18" cy="7.8" r="1.5"/>
		<circle fill="#CCCCCC" cx="113.4" cy="3.27" r="1.68"/>
		<circle fill="#CCCCCC" cx="116.18" cy="7.05" r="1.38"/>
		<circle fill="#CCCCCC" cx="121.59" cy="25.26" r="1.68"/>
		<circle fill="#CCCCCC" cx="118.83" cy="12.04" r="1.39"/>
		<circle fill="#CCCCCC" cx="137.02" cy="14.82" r="1.57"/>
		<circle fill="#CCCCCC" cx="138" cy="4.3" r="1.55"/>
		<circle fill="#CCCCCC" cx="128.2" cy="5.81" r="1.48"/>
		<circle fill="#CCCCCC" cx="140.52" cy="18.74" r="1.35"/>
		<circle fill="#CCCCCC" cx="111.4" cy="25.4" r="1.6"/>
		<circle fill="#CCCCCC" cx="139.82" cy="10.26" r="1.26"/>
		<circle fill="#CCCCCC" cx="131.9" cy="18.49" r="1.67"/>
		<circle fill="#CCCCCC" cx="136.4" cy="22.48" r="1.64"/>
		<circle fill="#CCCCCC" cx="132.67" cy="2.23" r="1.74"/>
		<circle fill="#CCCCCC" cx="133.62" cy="9.38" r="1.28"/>
		<circle fill="#CCCCCC" cx="84.34" cy="20.51" r="1.4"/>
		<circle fill="#CCCCCC" cx="75.58" cy="15.76" r="1.76"/>
		<circle fill="#CCCCCC" cx="86.67" cy="2.91" r="1.36"/>
		<circle fill="#CCCCCC" cx="81.18" cy="3.42" r="1.38"/>
		<circle fill="#CCCCCC" cx="85.99" cy="8.04" r="1.69"/>
		<circle fill="#CCCCCC" cx="81.83" cy="11.64" r="1.35"/>
		<circle fill="#CCCCCC" cx="75.91" cy="2.26" r="1.38"/>
		<circle fill="#CCCCCC" cx="77.31" cy="7.82" r="1.31"/>
		<circle fill="#CCCCCC" cx="108.44" cy="18.9" r="1.8"/>
		<circle fill="#CCCCCC" cx="80.83" cy="16.8" r="1.26"/>
		<circle fill="#CCCCCC" cx="79.25" cy="23.89" r="1.62"/>
		<circle fill="#CCCCCC" cx="102.92" cy="11.36" r="1.53"/>
		<circle fill="#CCCCCC" cx="107.06" cy="3.87" r="1.4"/>
		<circle fill="#CCCCCC" cx="108.81" cy="10.75" r="1.42"/>
		<circle fill="#CCCCCC" cx="100.7" cy="3.4" r="1.38"/>
		<circle fill="#CCCCCC" cx="91.55" cy="8.35" r="1.7"/>
		<circle fill="#CCCCCC" cx="97.92" cy="10.06" r="1.45"/>
		<circle fill="#CCCCCC" cx="92.25" cy="1.91" r="1.29"/>
		<circle fill="#CCCCCC" cx="11.63" cy="68.5" r="1.43"/>
		<circle fill="#CCCCCC" cx="95.24" cy="4.86" r="1.78"/>
		<circle fill="#CCCCCC" cx="29.91" cy="21.56" r="1.79"/>
		<circle fill="#CCCCCC" cx="36.94" cy="12.54" r="1.38"/>
		<circle fill="#CCCCCC" cx="33.67" cy="4.66" r="1.57"/>
		<circle fill="#CCCCCC" cx="38.95" cy="2.82" r="1.79"/>
		<circle fill="#CCCCCC" cx="43.97" cy="37.55" r="1.71"/>
		<circle fill="#CCCCCC" cx="41.1" cy="28.03" r="1.63"/>
		<circle fill="#CCCCCC" cx="40.56" cy="8.52" r="1.46"/>
		<circle fill="#CCCCCC" cx="23.22" cy="29.84" r="1.43"/>
		<circle fill="#CCCCCC" cx="25.21" cy="8.32" r="1.58"/>
		<circle fill="#CCCCCC" cx="28.11" cy="3.2" r="1.54"/>
		<circle fill="#CCCCCC" cx="31.04" cy="10.63" r="1.74"/>
		<circle fill="#CCCCCC" cx="25.15" cy="15.49" r="1.54"/>
		<circle fill="#CCCCCC" cx="45.56" cy="66.47" r="1.29"/>
		<circle fill="#CCCCCC" cx="45.77" cy="47.89" r="1.8"/>
		<circle fill="#CCCCCC" cx="43.82" cy="55.2" r="1.75"/>
		<circle fill="#CCCCCC" cx="46" cy="21.01" r="1.76"/>
		<circle fill="#CCCCCC" cx="46.74" cy="26.9" r="1.41"/>
		<circle fill="#CCCCCC" cx="44.9" cy="2.18" r="1.56"/>
		<circle fill="#CCCCCC" cx="46.63" cy="6.44" r="1.43"/>
		<circle fill="#CCCCCC" cx="46" cy="33.09" r="1.5"/>
		<circle fill="#CCCCCC" cx="45.69" cy="13.28" r="1.27"/>
		<circle fill="#CCCCCC" cx="41.41" cy="43.56" r="1.67"/>
		<circle fill="#CCCCCC" cx="2.79" cy="23.48" r="1.73"/>
		<circle fill="#CCCCCC" cx="1.47" cy="50.91" r="1.47"/>
		<circle fill="#CCCCCC" cx="2.17" cy="39.71" r="1.32"/>
		<circle fill="#CCCCCC" cx="2.92" cy="17.43" r="1.39"/>
		<circle fill="#CCCCCC" cx="3.89" cy="78.77" r="1.72"/>
		<circle fill="#CCCCCC" cx="3.34" cy="3.2" r="1.28"/>
		<circle fill="#CCCCCC" cx="6.25" cy="67.82" r="1.44"/>
		<circle fill="#CCCCCC" cx="1.62" cy="69.22" r="1.59"/>
		<circle fill="#CCCCCC" cx="2.74" cy="73.88" r="1.35"/>
		<circle fill="#CCCCCC" cx="3.83" cy="10.38" r="1.3"/>
		<circle fill="#CCCCCC" cx="16.84" cy="15.68" r="1.79"/>
		<circle fill="#CCCCCC" cx="21.69" cy="2.88" r="1.49"/>
		<circle fill="#CCCCCC" cx="14.98" cy="2.01" r="1.26"/>
		<circle fill="#CCCCCC" cx="19.58" cy="9.56" r="1.47"/>
		<circle fill="#CCCCCC" cx="14.6" cy="6.81" r="1.69"/>
		<circle fill="#CCCCCC" cx="8.7" cy="17.09" r="1.37"/>
		<circle fill="#CCCCCC" cx="6.3" cy="27.51" r="1.44"/>
		<circle fill="#CCCCCC" cx="11.35" cy="12.21" r="1.66"/>
		<circle fill="#CCCCCC" cx="9" cy="4.63" r="1.64"/>
		<circle fill="#CCCCCC" cx="39.09" cy="50.78" r="1.5"/>
		<circle fill="#CCCCCC" cx="34.9" cy="26.79" r="1.79"/>
		<circle fill="#CCCCCC" cx="37.52" cy="39.04" r="1.53"/>
		<circle fill="#CCCCCC" cx="37.84" cy="33.54" r="1.36"/>
		<circle fill="#CCCCCC" cx="40.53" cy="17.31" r="1.48"/>
		<circle fill="#CCCCCC" cx="32.7" cy="16.85" r="1.62"/>
		<circle fill="#CCCCCC" cx="27.94" cy="53.09" r="1.77"/>
		<circle fill="#CCCCCC" cx="31.3" cy="41.22" r="1.53"/>
		<circle fill="#CCCCCC" cx="37.97" cy="22.15" r="1.69"/>
		<circle fill="#CCCCCC" cx="29.81" cy="36.2" r="1.32"/>
		<circle fill="#CCCCCC" cx="2.81" cy="58.48" r="1.47"/>
		<circle fill="#CCCCCC" cx="31.3" cy="31.66" r="1.64"/>
		<circle fill="#CCCCCC" cx="6.02" cy="50.92" r="1.75"/>
		<circle fill="#CCCCCC" cx="2.91" cy="63.98" r="1.6"/>
		<circle fill="#CCCCCC" cx="3.6" cy="32.69" r="1.63"/>
		<circle fill="#CCCCCC" cx="14.96" cy="22.37" r="1.53"/>
		<circle fill="#CCCCCC" cx="10.97" cy="43.48" r="1.71"/>
		<circle fill="#CCCCCC" cx="8.75" cy="37.86" r="1.67"/>
		<circle fill="#CCCCCC" cx="11.82" cy="32.25" r="1.77"/>
		<circle fill="#CCCCCC" cx="9.75" cy="23.12" r="1.67"/>
		<circle fill="#CCCCCC" cx="19.62" cy="35.24" r="1.74"/>
		<circle fill="#CCCCCC" cx="7.74" cy="74.76" r="1.36"/>
		<circle fill="#CCCCCC" cx="28.78" cy="60.29" r="1.27"/>
		<circle fill="#CCCCCC" cx="25.41" cy="46.03" r="1.6"/>
		<circle fill="#CCCCCC" cx="22.57" cy="51.32" r="1.35"/>
		<circle fill="#CCCCCC" cx="36.43" cy="45.66" r="1.33"/>
		<circle fill="#CCCCCC" cx="35.71" cy="58.75" r="1.68"/>
		<circle fill="#CCCCCC" cx="19.68" cy="61.47" r="1.79"/>
		<circle fill="#CCCCCC" cx="30.71" cy="46.9" r="1.76"/>
		<circle fill="#CCCCCC" cx="33.7" cy="53.26" r="1.6"/>
		<circle fill="#CCCCCC" cx="27.02" cy="65.94" r="1.57"/>
		<circle fill="#CCCCCC" cx="4.46" cy="44.68" r="1.67"/>
		<circle fill="#CCCCCC" cx="24.99" cy="37.76" r="1.54"/>
		<circle fill="#CCCCCC" cx="21.89" cy="41.99" r="1.68"/>
		<circle fill="#CCCCCC" cx="27.74" cy="26.53" r="1.67"/>
		<circle fill="#CCCCCC" cx="15.56" cy="39.34" r="1.32"/>
		<circle fill="#CCCCCC" cx="16.64" cy="52.75" r="1.27"/>
		<circle fill="#CCCCCC" cx="16.19" cy="28.33" r="1.58"/>
		<circle fill="#CCCCCC" cx="21.4" cy="21.58" r="1.64"/>
		<circle fill="#CCCCCC" cx="18.56" cy="46.49" r="1.75"/>
	</g>
	<g id="header">
		<path fill="#333333" d="M91.16,49.99h3V31.75h-3v-4.04h9.96c9.52,0,15.16,4.96,15.16,12.92c0,8.04-5.32,13.4-15.64,13.4h-9.48
			V49.99z M101.28,49.99c6.8,0,10.32-3.68,10.32-9.32c0-5.76-4.08-8.92-10.64-8.92h-2.28v18.24H101.28z"/>
		<path fill="#333333" d="M121.96,40.87c0-7.72,5.6-13.64,13.6-13.64c7.96,0,13.4,5.96,13.4,13.64c0,7.72-5.6,13.64-13.6,13.64
			C127.4,54.51,121.96,48.55,121.96,40.87z M144.28,40.87c0-5.48-3.72-9.44-8.8-9.44c-5.12,0-8.84,3.92-8.84,9.44
			c0,5.48,3.72,9.44,8.84,9.44C140.56,50.31,144.28,46.39,144.28,40.87z"/>
		<path fill="#333333" d="M154.28,49.99h3V31.75h-3v-4.04h11v4.04h-3.48v18.28h7.24v-3.72h4.36v7.72h-19.12V49.99z"/>
		<path fill="#333333" d="M178.2,49.99h3V31.75h-3v-4.04h11v4.04h-3.48v18.28h7.24v-3.72h4.36v7.72H178.2V49.99z"/>
		<path fill="#333333" d="M202.04,48.39c0-1.88,1.12-3.12,2.76-3.12c1.76,0,2.88,1.32,2.88,2.6c0,0.64-0.12,1.12-0.36,1.6
			c0.96,0.68,2.44,1.12,4.16,1.12c2.88,0,4.72-1.28,4.72-3.56c0-2.16-2.2-3.2-4.84-4.12c-4.88-1.76-8.32-3.32-8.32-8.2
			c0-4.2,3.4-7.48,8.72-7.48c4.92,0,8.72,2.52,8.72,5.68c0,1.88-1.16,2.96-2.68,2.96c-1.84,0-2.88-1.36-2.88-2.68
			c0-0.64,0.12-0.92,0.28-1.24c-0.72-0.44-1.84-0.8-3.48-0.8c-2.6,0-4.12,1.32-4.12,3.24c0,2.16,2.2,3.12,4.84,4.08
			c4.72,1.68,8.28,3.32,8.28,8.2c0,5-3.88,7.84-9.28,7.84C206.24,54.51,202.04,51.59,202.04,48.39z"/>
	</g>
</svg>
