<?xml version="1.0" encoding="utf-8"?>
<!DOCTYPE svg PUBLIC "-//W3C//DTD SVG 1.1//EN" "http://www.w3.org/Graphics/SVG/1.1/DTD/svg11.dtd">
<svg version="1.1" xmlns="http://www.w3.org/2000/svg" xmlns:xlink="http://www.w3.org/1999/xlink" x="0px" y="0px" viewBox="0 0 1000 1000" enable-background="new 0 0 1000 1000" xml:space="preserve">
  <style type="text/css">
    <![CDATA[
    .arrow { fill: #66afe9; }
    ]]>
  </style>
<metadata>SVG Right Arrow Icon</metadata>
<g><path class="arrow" d="M787,702.7c-9.5-9.5-24.5-9.2-34.6,0L524.5,906.1V34.5c0-13.5-11-24.5-24.5-24.5s-24.5,11-24.5,24.5v871.6L247.7,703c-10.4-8.9-24.8-9.8-34.3-0.3c-9.5,9.5-10.1,26-0.3,34.9c0,0,266.4,242.5,269.5,245c3.1,2.4,8.6,7.3,17.5,7.3s15-4.9,17.5-7.3c2.5-2.5,269.5-245,269.5-245c4.6-4.6,7-11,7-17.5S791.6,707.6,787,702.7z" /></g>
</svg>