<?xml version="1.0" standalone="no"?>
<!DOCTYPE svg PUBLIC "-//W3C//DTD SVG 1.1//EN" "http://www.w3.org/Graphics/SVG/1.1/DTD/svg11.dtd" >
<svg xmlns="http://www.w3.org/2000/svg">
<metadata>Generated by IcoMoon</metadata>
<defs>
<font id="icomoon" horiz-adv-x="1024">
<font-face units-per-em="1024" ascent="960" descent="-64" />
<missing-glyph horiz-adv-x="1024" />
<glyph unicode="&#x20;" d="" horiz-adv-x="512" />
<glyph unicode="&#xe600;" d="M947.2 960h-870.4c-40.96 0-76.8-35.84-76.8-76.8v-870.4c0-40.96 35.84-76.8 76.8-76.8h870.4c40.96 0 76.8 35.84 76.8 76.8v870.4c0 40.96-35.84 76.8-76.8 76.8zM486.4 202.24l-230.4 92.16v409.6l230.4-92.16v-409.6zM768 294.4l-230.4-92.16v409.6l230.4 92.16v-409.6z" />
<glyph unicode="&#xe601;" d="M947.2 960h-870.4c-40.96 0-76.8-35.84-76.8-76.8v-870.4c0-40.96 35.84-76.8 76.8-76.8h870.4c40.96 0 76.8 35.84 76.8 76.8v870.4c0 40.96-35.84 76.8-76.8 76.8zM512 704c92.16 0 163.84-61.44 148.48-168.96-15.36-102.4-87.040-168.96-148.48-168.96s-128 71.68-148.48 168.96c-15.36 107.52 56.32 168.96 148.48 168.96zM512 192h-256c30.72 71.68 107.52 102.4 163.84 133.12 25.6-20.48 61.44-25.6 92.16-25.6s61.44 10.24 92.16 25.6c56.32-30.72 138.24-61.44 163.84-133.12h-256z" />
<glyph unicode="&#xe602;" d="M947.2 960h-870.4c-40.96 0-76.8-35.84-76.8-76.8v-870.4c0-40.96 35.84-76.8 76.8-76.8h870.4c40.96 0 76.8 35.84 76.8 76.8v870.4c0 40.96-35.84 76.8-76.8 76.8zM348.16 232.96c-30.72 0-51.2 25.6-51.2 51.2 0 30.72 25.6 51.2 51.2 51.2 30.72 0 51.2-25.6 51.2-51.2s-20.48-51.2-51.2-51.2zM532.48 232.96c-20.48 0-40.96 15.36-40.96 40.96 0 87.040-71.68 153.6-153.6 153.6-20.48 0-40.96 15.36-40.96 40.96s15.36 40.96 40.96 40.96c128 0 235.52-102.4 235.52-235.52-5.12-20.48-20.48-40.96-40.96-40.96zM686.080 232.96c-20.48 0-40.96 15.36-40.96 40.96 0 174.080-138.24 312.32-312.32 312.32-15.36 0-35.84 15.36-35.84 35.84s15.36 40.96 40.96 40.96c215.040 0 389.12-174.080 389.12-389.12 0-20.48-20.48-40.96-40.96-40.96z" />
<glyph unicode="&#xe603;" d="M947.2 960h-870.4c-40.96 0-76.8-35.84-76.8-76.8v-870.4c0-40.96 35.84-76.8 76.8-76.8h870.4c40.96 0 76.8 35.84 76.8 76.8v870.4c0 40.96-35.84 76.8-76.8 76.8zM512 243.2c-20.48 0-40.96 0-61.44 5.12-87.040-51.2-194.56-56.32-194.56-56.32l87.040 97.28c-51.2 35.84-87.040 92.16-87.040 158.72 0 122.88 112.64 204.8 256 204.8s256-81.92 256-204.8c0-122.88-112.64-204.8-256-204.8z" />
<glyph unicode="&#xe604;" d="M947.2 960h-870.4c-40.96 0-76.8-35.84-76.8-76.8v-870.4c0-40.96 35.84-76.8 76.8-76.8h870.4c40.96 0 76.8 35.84 76.8 76.8v870.4c0 40.96-35.84 76.8-76.8 76.8zM645.12 622.080h-46.080c-40.96 0-46.080-20.48-46.080-46.080v-56.32h92.16l-10.24-92.16h-76.8v-235.52h-97.28v230.4h-81.92v92.16h81.92v66.56c0 76.8 46.080 122.88 117.76 122.88 30.72 0 61.44 0 66.56 0v-81.92z" />
<glyph unicode="&#xe605;" d="M947.2 960h-870.4c-40.96 0-76.8-35.84-76.8-76.8v-870.4c0-40.96 35.84-76.8 76.8-76.8h870.4c40.96 0 76.8 35.84 76.8 76.8v870.4c0 40.96-35.84 76.8-76.8 76.8zM665.6 222.72c-25.6-20.48-61.44-30.72-112.64-30.72h-235.52v81.92h40.96c15.36 15.36 30.72 30.72 35.84 40.96s10.24 25.6 10.24 46.080c0 15.36-5.12 30.72-10.24 46.080h-71.68v76.8h46.080c-15.36 30.72-25.6 61.44-25.6 87.040 0 40.96 15.36 71.68 46.080 97.28s71.68 35.84 128 35.84c46.080 0 87.040-10.24 112.64-30.72s46.080-56.32 51.2-102.4l-92.16-15.36c-5.12 20.48-10.24 40.96-20.48 51.2s-25.6 20.48-51.2 20.48c-40.96 0-61.44-20.48-66.56-56.32 0-20.48 10.24-46.080 30.72-87.040h133.12v-76.8h-112.64c5.12-15.36 10.24-25.6 10.24-40.96 0-30.72-15.36-61.44-40.96-92.16h71.68c25.6 0 46.080 5.12 56.32 15.36s20.48 25.6 20.48 51.2l87.040-15.36c-5.12-46.080-15.36-76.8-40.96-102.4z" />
<glyph unicode="&#xe606;" d="M947.2 960h-870.4c-40.96 0-76.8-35.84-76.8-76.8v-870.4c0-40.96 35.84-76.8 76.8-76.8h870.4c40.96 0 76.8 35.84 76.8 76.8v870.4c0 40.96-35.84 76.8-76.8 76.8zM768 192h-512v204.8h204.8v-81.92l148.48 133.12-148.48 133.12v-81.92h-204.8v204.8h512v-512z" />
<glyph unicode="&#xe607;" d="M947.2 960h-870.4c-40.96 0-76.8-35.84-76.8-76.8v-870.4c0-40.96 35.84-76.8 76.8-76.8h870.4c40.96 0 76.8 35.84 76.8 76.8v870.4c0 40.96-35.84 76.8-76.8 76.8zM721.92 565.76c-10.24-5.12 20.48-97.28-71.68-209.92 0 0-71.68-92.16-194.56-107.52-51.2-5.12-128-15.36-199.68 40.96 0 0 76.8-10.24 153.6 46.080 0 0-76.8 5.12-97.28 66.56 0 0 35.84 0 46.080 0 0 0-81.92 30.72-81.92 107.52 0 0 30.72-15.36 46.080-10.24 0 0-71.68 51.2-25.6 138.24 0 0 76.8-107.52 215.040-107.52 0 0-10.24 92.16 66.56 117.76 0 0 66.56 30.72 112.64-25.6 0 0 51.2 10.24 61.44 25.6 0 0-5.12-30.72-40.96-46.080 0 0 35.84 0 56.32 10.24 0 0-35.84-40.96-46.080-46.080z" />
<glyph unicode="&#xe608;" d="M0 632.32v-189.44c0-35.84 25.6-66.56 56.32-71.68l609.28-148.48c5.12 0 10.24 0 15.36 0 30.72 0 61.44 20.48 71.68 56.32l81.92 476.16h128c40.96 0 61.44 40.96 61.44 81.92s-30.72 71.68-71.68 71.68h-184.32c-35.84 0-61.44-20.48-71.68-56.32l-25.6-148.48h-593.92c-40.96 0-76.8-30.72-76.8-71.68zM665.6 38.4c0-56.554-45.846-102.4-102.4-102.4s-102.4 45.846-102.4 102.4c0 56.554 45.846 102.4 102.4 102.4s102.4-45.846 102.4-102.4zM358.4 38.4c0-56.554-45.846-102.4-102.4-102.4s-102.4 45.846-102.4 102.4c0 56.554 45.846 102.4 102.4 102.4s102.4-45.846 102.4-102.4z" />
<glyph unicode="&#xe609;" d="M768 806.4v102.4h-102.4v-102.4h-358.4v102.4h-102.4v-102.4h-153.6v-870.4h870.4v870.4h-153.6zM819.2 38.4h-665.6v460.8h665.6v-460.8z" />
<glyph unicode="&#xe60a;" d="M512 960c-138.24 0-266.24-51.2-363.52-148.48s-148.48-225.28-148.48-363.52 51.2-266.24 148.48-363.52c199.68-199.68 522.24-199.68 721.92 0 102.4 97.28 153.6 225.28 153.6 363.52 0 0 0 0 0 0 0 138.24-51.2 266.24-148.48 363.52s-225.28 148.48-363.52 148.48zM921.6 448c0-107.52-40.96-209.92-117.76-291.84-81.92-76.8-184.32-117.76-291.84-117.76s-209.92 40.96-291.84 117.76c-76.8 81.92-117.76 184.32-117.76 291.84s40.96 209.92 117.76 291.84c81.92 76.8 184.32 117.76 291.84 117.76s209.92-40.96 291.84-117.76c76.8-81.92 117.76-184.32 117.76-291.84zM512 519.68v0l-133.12 133.12-71.68-71.68 133.12-133.12-133.12-133.12 71.68-71.68 133.12 133.12 133.12-133.12 71.68 71.68-133.12 133.12 133.12 133.12-71.68 71.68z" />
<glyph unicode="&#xe60b;" d="M1024 448c0 138.24-51.2 266.24-148.48 363.52s-225.28 148.48-363.52 148.48c-138.24 0-266.24-51.2-363.52-148.48s-148.48-225.28-148.48-363.52c0-138.24 51.2-266.24 148.48-363.52 199.68-199.68 522.24-199.68 721.92 0 102.4 97.28 153.6 225.28 153.6 363.52 0 0 0 0 0 0zM716.8 314.88l-71.68-71.68-133.12 133.12-133.12-133.12-71.68 71.68 133.12 133.12-133.12 133.12 71.68 71.68 133.12-133.12 133.12 133.12 71.68-71.68-133.12-133.12 133.12-133.12z" />
<glyph unicode="&#xe60c;" d="M465.92 151.040l-20.48 307.2-102.4-5.12 20.48-307.2zM670.72 453.12l-102.4 5.12-20.48-307.2 102.4-5.12zM931.84 704l-250.88 46.080 25.6 153.6-302.080 51.2-25.6-153.6-250.88 46.080-15.36-102.4 481.28-87.040h-501.76l117.76-716.8h599.040l117.76 716.8 5.12 46.080zM481.28 785.92l10.24 51.2 102.4-15.36-10.24-51.2-102.4 15.36zM721.92 43.52h-424.96l-87.040 512h599.040l-87.040-512z" />
<glyph unicode="&#xe60d;" d="M983.040 785.92l-133.12 133.12c-56.32 56.32-148.48 56.32-199.68 0l-168.96-168.96-71.68-66.56-245.76-245.76-163.84-501.76 506.88 168.96 481.28 481.28c51.2 51.2 51.2 143.36-5.12 199.68zM450.56 186.88l-215.040-71.68-61.44 61.44 71.68 215.040 225.28 225.28 76.8-66.56-235.52-235.52 66.56-66.56 235.52 235.52 66.56-66.56-230.4-230.4zM747.52 483.84l-199.68 199.68 35.84 35.84 199.68-199.68-35.84-35.84zM916.48 652.8l-66.56-66.56-199.68 199.68 66.56 66.56c20.48 15.36 51.2 20.48 66.56 0l133.12-133.12c15.36-20.48 15.36-51.2 0-66.56z" />
<glyph unicode="&#xe60e;" d="M947.2 801.28c-10.24 0-15.36 5.12-25.6 5.12h-819.2c-10.24 0-15.36 0-25.6-5.12l435.2-348.16 435.2 348.16zM1013.76 739.84l-506.88-404.48-501.76 404.48c-5.12-10.24-5.12-25.6-5.12-35.84v-512c0-56.32 46.080-102.4 102.4-102.4h819.2c56.32 0 102.4 46.080 102.4 102.4v506.88c0 15.36-5.12 30.72-10.24 40.96z" />
<glyph unicode="&#xe60f;" d="M748.896 394.506l20.378 183.404h-183.404v117.174c0 56.040 15.284 96.796 91.702 96.796h96.796v163.024c-15.284 0-76.418 5.096-137.552 5.096-137.552 0-234.348-91.702-234.348-244.538v-132.458h-163.026v-188.498h163.026v-458.506h188.498v458.508h157.93z" horiz-adv-x="1020" />
<glyph unicode="&#xe610;" d="M942.080 704c10.24 20.48 10.24 40.96 10.24 61.44 0 46.080-15.36 87.040-51.2 117.76-61.44 61.44-174.080 61.44-235.52 0l-112.64-112.64c-5.12 71.68-35.84 138.24-81.92 189.44h-122.88c56.32-46.080 81.92-112.64 97.28-168.96l-92.16 92.16c-61.44 61.44-174.080 61.44-235.52 0-30.72-30.72-51.2-71.68-51.2-117.76 0-20.48 5.12-46.080 10.24-61.44h-76.8v-768h1024v768h-81.92zM921.6 422.4h-307.2v179.2h307.2v-179.2zM409.6 601.6v-179.2h-307.2v179.2h307.2zM742.4 811.52c25.6 25.6 66.56 25.6 92.16 0 10.24-10.24 20.48-30.72 20.48-46.080s-5.12-30.72-20.48-46.080c-10.24-10.24-25.6-15.36-46.080-15.36h-153.6l107.52 107.52zM189.44 724.48c-15.36 10.24-20.48 25.6-20.48 40.96s5.12 30.72 20.48 46.080c10.24 10.24 30.72 20.48 46.080 20.48s30.72-5.12 46.080-20.48l107.52-107.52h-153.6c-20.48 0-35.84 5.12-46.080 20.48zM102.4 217.6h307.2v-179.2h-307.2v179.2zM614.4 38.4v179.2h307.2v-179.2h-307.2z" />
<glyph unicode="&#xe611;" d="M967.68 837.12l-148.48 122.88-307.2-225.28-307.2 225.28-148.48-122.88-56.32 25.6v-716.8l435.2-209.92h153.6l435.2 209.92v716.8l-56.32-25.6zM860.16 796.16l5.12-10.24-296.96-143.36h-20.48l261.12 194.56 51.2-40.96zM471.040 545.28h81.92v-506.88h-81.92v506.88zM215.040 837.12l261.12-194.56h-20.48l-296.96 143.36 5.12 10.24 51.2 40.96zM102.4 714.24l317.44-163.84v-496.64l-317.44 163.84v496.64zM921.6 217.6l-317.44-163.84v496.64l317.44 163.84v-496.64z" />
<glyph unicode="&#xe612;" d="M384 576c-20.48 20.48-51.2 20.48-71.68 0s-20.48-51.2 0-71.68l153.6-153.6v-163.84c0-30.72 20.48-51.2 51.2-51.2s51.2 20.48 51.2 51.2v184.32c0 15.36-5.12 25.6-15.36 35.84l-168.96 168.96zM926.72 913.92c-40.96 30.72-92.16 46.080-138.24 46.080-81.92 0-153.6-40.96-199.68-102.4-10.24-15.36-10.24-40.96 0-56.32-25.6 5.12-51.2 5.12-71.68 5.12-25.6 0-51.2 0-71.68-5.12 10.24 15.36 10.24 40.96 0 56.32-46.080 61.44-122.88 102.4-204.8 102.4-46.080 0-97.28-15.36-138.24-46.080-107.52-76.8-138.24-230.4-61.44-337.92 10.24-10.24 20.48-15.36 35.84-20.48 5.12 0 5.12 0 10.24 0 10.24 0 20.48 5.12 30.72 10.24l20.48 15.36c-81.92-148.48-66.56-337.92 40.96-476.16l-40.96-40.96c-20.48-20.48-20.48-51.2 0-71.68 10.24-10.24 25.6-15.36 35.84-15.36s25.6 5.12 35.84 15.36l40.96 40.96c76.8-61.44 168.96-92.16 271.36-92.16 97.28 0 194.56 30.72 271.36 92.16l40.96-40.96c10.24-10.24 25.6-15.36 35.84-15.36s25.6 5.12 35.84 15.36c20.48 20.48 20.48 51.2 0 71.68l-40.96 40.96c61.44 76.8 92.16 168.96 92.16 271.36 0 71.68-15.36 138.24-51.2 199.68l10.24-10.24c10.24-5.12 20.48-10.24 30.72-10.24 5.12 0 5.12 0 10.24 0 15.36 0 25.6 10.24 30.72 20.48 76.8 112.64 46.080 261.12-61.44 337.92zM107.52 683.52c-15.36 56.32 5.12 112.64 56.32 148.48 20.48 15.36 51.2 25.6 76.8 25.6 30.72 0 56.32-10.24 76.8-25.6l-209.92-148.48zM281.6 135.68c-128 128-128 343.040 0 471.040 61.44 61.44 148.48 97.28 235.52 97.28s174.080-35.84 235.52-97.28c61.44-61.44 97.28-148.48 97.28-235.52s-35.84-174.080-97.28-235.52c-61.44-61.44-148.48-97.28-235.52-97.28s-174.080 35.84-235.52 97.28zM921.6 683.52l-215.040 148.48c46.080 30.72 112.64 30.72 158.72 0 51.2-35.84 71.68-92.16 56.32-148.48z" horiz-adv-x="1030" />
<glyph unicode="&#xe613;" d="M512 704l66.56-133.12 25.6-46.080 51.2-10.24 148.48-20.48-107.52-102.4-40.96-35.84 10.24-51.2 25.6-148.48-128 61.44-51.2 25.6-46.080-25.6-133.12-71.68 25.6 153.6 10.24 51.2-40.96 35.84-107.52 102.4 148.48 20.48 51.2 10.24 25.6 46.080 66.56 138.24zM512 934.4l-153.6-317.44-358.4-51.2 256-250.88-61.44-353.28 317.44 163.84 317.44-163.84-61.44 353.28 256 250.88-353.28 51.2-158.72 317.44z" />
<glyph unicode="&#xe614;" d="M512 934.4l158.72-317.44 353.28-51.2-256-250.88 61.44-353.28-317.44 168.96-312.32-168.96 56.32 353.28-256 250.88 358.4 51.2z" />
<glyph unicode="&#xe615;" d="M988.16 847.36c-25.6-30.72-128-51.2-128-51.2-92.16 107.52-230.4 51.2-230.4 51.2-158.72-56.32-133.12-235.52-133.12-235.52-281.6 5.12-435.2 215.040-435.2 215.040-81.92-174.080 56.32-276.48 56.32-276.48-30.72-5.12-87.040 25.6-87.040 25.6 0-158.72 163.84-215.040 163.84-215.040-15.36 0-87.040 0-87.040 0 35.84-128 194.56-138.24 194.56-138.24-153.6-112.64-302.080-92.16-302.080-92.16 148.48-112.64 296.96-97.28 399.36-81.92 245.76 30.72 384 215.040 384 215.040 179.2 225.28 117.76 409.6 143.36 419.84v0c25.6 15.36 97.28 97.28 97.28 97.28-46.080-25.6-117.76-25.6-117.76-25.6 71.68 25.6 81.92 92.16 81.92 92.16z" />
<glyph unicode="&#xe616;" d="M512 960c281.6 0 512-230.4 512-512s-230.4-512-512-512c-281.6 0-512 230.4-512 512s230.4 512 512 512zM512 115.2c56.32 0 102.4 46.080 102.4 102.4s-46.080 102.4-102.4 102.4c-56.32 0-102.4-46.080-102.4-102.4s46.080-102.4 102.4-102.4zM512 371.2l102.4 409.6h-204.8c15.36-291.84 102.4-409.6 102.4-409.6z" />
<glyph unicode="&#xe617;" d="M512 960c-281.6 0-512-230.4-512-512s230.4-512 512-512c281.6 0 512 230.4 512 512s-230.4 512-512 512zM460.8 192c0 0-51.2 30.72-87.040 71.68-117.76 117.76-112.64 281.6-112.64 281.6l184.32-138.24c0 0 174.080 184.32 424.96 250.88l-409.6-465.92z" />
<glyph unicode="&#xe618;" d="M512 960c-281.6 0-512-230.4-512-512s230.4-512 512-512c281.6 0 512 230.4 512 512s-230.4 512-512 512zM491.52 345.6c15.36-81.92 15.36-158.72 15.36-158.72l-302.080 261.12 302.080 261.12c0 0 5.12-81.92-15.36-163.84 291.84-15.36 307.2-204.8 307.2-204.8l-307.2 5.12z" />
<glyph unicode="&#xe619;" d="M471.040 675.84l240.64-240.64-240.64-240.64-71.68 71.68 168.96 168.96-168.96 168.96zM0 435.2c0-138.24 51.2-266.24 148.48-363.52s225.28-148.48 363.52-148.48c0 0 0 0 0 0 138.24 0 266.24 51.2 363.52 148.48 199.68 199.68 199.68 522.24 0 721.92-97.28 102.4-225.28 153.6-363.52 153.6s-266.24-51.2-363.52-148.48-148.48-225.28-148.48-363.52zM102.4 435.2c0 107.52 40.96 209.92 117.76 291.84 81.92 76.8 184.32 117.76 291.84 117.76s209.92-40.96 291.84-117.76c76.8-81.92 117.76-184.32 117.76-291.84s-40.96-209.92-117.76-291.84-184.32-117.76-291.84-117.76-209.92 40.96-291.84 117.76c-76.8 81.92-117.76 184.32-117.76 291.84z" />
<glyph unicode="&#xe61a;" d="M0 435.2c0-138.24 51.2-266.24 148.48-363.52s225.28-148.48 363.52-148.48c0 0 0 0 0 0 138.24 0 266.24 51.2 363.52 148.48 199.68 199.68 199.68 522.24 0 721.92-97.28 102.4-225.28 153.6-363.52 153.6s-266.24-51.2-363.52-148.48-148.48-225.28-148.48-363.52zM568.32 435.2l-168.96 168.96 71.68 71.68 240.64-240.64-240.64-240.64-71.68 71.68 168.96 168.96z" />
<glyph unicode="&#xe61b;" d="M552.96 675.84l-240.64-240.64 240.64-240.64 71.68 71.68-168.96 168.96 168.96 168.96zM875.52 798.72c-97.28 97.28-225.28 148.48-363.52 148.48s-266.24-51.2-363.52-148.48c-199.68-199.68-199.68-527.36 0-727.040 97.28-97.28 225.28-148.48 363.52-148.48 0 0 0 0 0 0 138.24 0 266.24 51.2 363.52 148.48s148.48 225.28 148.48 363.52-51.2 266.24-148.48 363.52zM803.84 143.36c-81.92-76.8-184.32-117.76-291.84-117.76s-209.92 40.96-291.84 117.76-117.76 184.32-117.76 291.84 40.96 209.92 117.76 291.84c81.92 76.8 184.32 117.76 291.84 117.76s209.92-40.96 291.84-117.76c76.8-81.92 117.76-184.32 117.76-291.84s-40.96-209.92-117.76-291.84z" />
<glyph unicode="&#xe61c;" d="M875.52 798.72c-97.28 97.28-225.28 148.48-363.52 148.48s-266.24-51.2-363.52-148.48c-199.68-199.68-199.68-527.36 0-727.040 97.28-97.28 225.28-148.48 363.52-148.48 0 0 0 0 0 0 138.24 0 266.24 51.2 363.52 148.48s148.48 225.28 148.48 363.52-51.2 266.24-148.48 363.52zM624.64 266.24l-71.68-71.68-240.64 240.64 240.64 240.64 71.68-71.68-168.96-168.96 168.96-168.96z" />
<glyph unicode="&#xe61d;" d="M512 934.4c-281.6 0-512-230.4-512-512s230.4-512 512-512 512 230.4 512 512c0 281.6-230.4 512-512 512zM512-25.6c-246.4 0-448 201.6-448 448s201.6 448 448 448 448-201.6 448-448c0-246.4-201.6-448-448-448zM576 422.4v0c38.4 12.8 70.4 38.4 70.4 86.4 0 51.2-25.6 89.6-112 89.6h-147.2v-368h134.4c80 0 140.8 25.6 140.8 102.4 0 51.2-28.8 83.2-86.4 89.6zM467.2 540.8h41.6c35.2 0 60.8-3.2 60.8-41.6 0-41.6-38.4-51.2-73.6-51.2h-28.8v92.8zM505.6 291.2h-41.6v96h48c35.2 0 64-6.4 64-48 3.2-41.6-25.6-48-70.4-48z" />
<glyph unicode="&#xe61e;" d="M512 934.4c-281.6 0-512-230.4-512-512s230.4-512 512-512 512 230.4 512 512c0 281.6-230.4 512-512 512zM521.6 230.4h-134.4v371.2h147.2c86.4 0 112-38.4 112-89.6s-32-76.8-70.4-86.4v0c57.6-6.4 86.4-38.4 86.4-89.6 0-80-60.8-105.6-140.8-105.6zM569.6 499.2c0 38.4-25.6 41.6-60.8 41.6h-41.6v-92.8h28.8c35.2 0 73.6 6.4 73.6 51.2zM515.2 387.2h-48v-96h41.6c41.6 0 70.4 6.4 70.4 48s-28.8 48-64 48z" />
<glyph unicode="&#xe61f;" d="M512 934.4c-281.6 0-512-230.4-512-512s230.4-512 512-512 512 230.4 512 512c0 281.6-230.4 512-512 512zM512-25.6c-246.4 0-448 201.6-448 448s201.6 448 448 448 448-201.6 448-448c0-246.4-201.6-448-448-448zM368 646.4l-60.8-41.6-70.4 28.8 22.4-73.6-48-57.6 73.6-3.2 38.4-60.8 25.6 70.4 73.6 16-57.6 48zM496 582.4h320v-64h-320v64zM393.6 374.4l-67.2-25.6-64 41.6 6.4-73.6-57.6-48 70.4-16 25.6-70.4 41.6 60.8 73.6 3.2-48 57.6zM496 326.4h320v-64h-320v64z" />
<glyph unicode="&#xe620;" d="M512 934.4c-281.6 0-512-230.4-512-512s230.4-512 512-512 512 230.4 512 512c0 281.6-230.4 512-512 512zM348.8 243.2l-38.4-64-25.6 70.4-70.4 19.2 57.6 44.8-9.6 76.8 60.8-41.6 70.4 28.8-19.2-70.4 48-57.6-73.6-6.4zM348.8 508.8l-25.6-70.4-38.4 64-73.6 3.2 48 57.6-22.4 70.4 70.4-28.8 60.8 41.6-6.4-73.6 57.6-44.8-70.4-19.2zM816 262.4h-320v64h320v-64zM816 518.4h-320v64h320v-64z" />
<glyph unicode="&#xe621;" d="M512 934.4c-281.6 0-512-230.4-512-512s230.4-512 512-512 512 230.4 512 512c0 281.6-230.4 512-512 512zM512-25.6c-246.4 0-448 201.6-448 448s201.6 448 448 448 448-201.6 448-448-201.6-448-448-448zM784 646.4h-544c-35.2 0-64-28.8-64-64v-320c0-35.2 28.8-64 64-64h544c35.2 0 64 28.8 64 64v320c0 35.2-28.8 64-64 64zM489.6 310.4h-35.2l-6.4 28.8c-9.6-19.2-38.4-32-67.2-32-70.4 0-99.2 48-99.2 115.2 0 73.6 38.4 124.8 112 124.8 51.2 0 86.4-22.4 92.8-80l-44.8-3.2c-3.2 25.6-12.8 44.8-44.8 44.8-41.6 0-60.8-28.8-60.8-80 0-54.4 19.2-80 57.6-80 32 0 48 19.2 48 41.6v9.6h-41.6v35.2h89.6v-124.8zM627.2 304c-76.8 0-108.8 48-108.8 118.4 0 67.2 38.4 121.6 112 121.6s105.6-51.2 105.6-115.2c3.2-76.8-32-124.8-108.8-124.8zM633.6 502.4c-38.4 0-60.8-25.6-60.8-76.8 0-54.4 22.4-76.8 57.6-76.8s57.6 22.4 57.6 80c0 51.2-19.2 73.6-54.4 73.6z" />
<glyph unicode="&#xe622;" d="M512 934.4c-281.6 0-512-230.4-512-512s230.4-512 512-512 512 230.4 512 512-230.4 512-512 512zM848 262.4c0-35.2-28.8-64-64-64h-544c-35.2 0-64 28.8-64 64v320c0 35.2 28.8 64 64 64h544c35.2 0 64-28.8 64-64v-320zM633.6 544c-73.6 0-112-51.2-112-121.6s32-118.4 108.8-118.4c73.6 0 112 48 112 121.6-3.2 67.2-32 118.4-108.8 118.4zM630.4 345.6c-35.2 0-57.6 22.4-57.6 76.8s22.4 76.8 60.8 76.8c35.2 0 57.6-25.6 57.6-76.8-3.2-54.4-25.6-76.8-60.8-76.8zM400 393.6h41.6v-9.6c0-22.4-16-41.6-48-41.6-41.6 0-57.6 25.6-57.6 80 0 48 19.2 80 60.8 80 32 0 44.8-19.2 44.8-44.8l44.8 3.2c-3.2 57.6-41.6 80-92.8 80-73.6 0-112-48-112-124.8 0-67.2 28.8-115.2 99.2-115.2 28.8 0 57.6 12.8 67.2 32l6.4-28.8h35.2v121.6h-89.6v-32z" />
<glyph unicode="&#xe623;" d="M512 934.4c-281.6 0-512-230.4-512-512s230.4-512 512-512 512 230.4 512 512c0 281.6-230.4 512-512 512zM512-25.6c-246.4 0-448 201.6-448 448s201.6 448 448 448 448-201.6 448-448c0-246.4-201.6-448-448-448zM256 454.4h512v-64h-512v64zM352 326.4h320v-64h-320v64zM352 582.4h320v-64h-320v64z" />
<glyph unicode="&#xe624;" d="M512 934.4c-281.6 0-512-230.4-512-512s230.4-512 512-512 512 230.4 512 512c0 281.6-230.4 512-512 512zM352 582.4h320v-64h-320v64zM672 262.4h-320v64h320v-64zM768 390.4h-512v64h512v-64z" />
<glyph unicode="&#xe625;" d="M512 934.4c-281.6 0-512-230.4-512-512s230.4-512 512-512 512 230.4 512 512c0 281.6-230.4 512-512 512zM512-25.6c-246.4 0-448 201.6-448 448s201.6 448 448 448 448-201.6 448-448-201.6-448-448-448zM208 438.4h128v-64h-128v64zM432 438.4h160v-64h-160v64zM688 438.4h128v-64h-128v64z" />
<glyph unicode="&#xe626;" d="M512 934.4c-281.6 0-512-230.4-512-512s230.4-512 512-512 512 230.4 512 512c0 281.6-230.4 512-512 512zM512-25.6c-246.4 0-448 201.6-448 448s201.6 448 448 448 448-201.6 448-448-201.6-448-448-448zM176 678.4v-512h672v512h-672zM720 614.4l-208-153.6-208 153.6h416zM240 582.4l217.6-160-217.6-160v320zM304 230.4l208 153.6 208-153.6h-416zM784 262.4l-217.6 160 217.6 160v-320z" />
<glyph unicode="&#xe627;" d="M512 934.4c-281.6 0-512-230.4-512-512s230.4-512 512-512 512 230.4 512 512-230.4 512-512 512zM761.6 646.4l-249.6-185.6-249.6 185.6h499.2zM208 608l249.6-185.6-249.6-185.6v371.2zM262.4 198.4l249.6 185.6 249.6-185.6h-499.2zM816 236.8l-249.6 185.6 249.6 185.6v-371.2z" />
<glyph unicode="&#xe628;" d="M512 934.4c-281.6 0-512-230.4-512-512s230.4-512 512-512 512 230.4 512 512-230.4 512-512 512zM816 198.4h-608v448h608v-448zM304 550.4h64v-256h-64v256z" />
<glyph unicode="&#xe629;" d="M512 934.4c-281.6 0-512-230.4-512-512s230.4-512 512-512 512 230.4 512 512c0 281.6-230.4 512-512 512zM512-25.6c-246.4 0-448 201.6-448 448s201.6 448 448 448 448-201.6 448-448c0-246.4-201.6-448-448-448zM608 662.4h-118.4l-182.4-291.2v-67.2h208v-105.6h92.8v102.4h51.2v76.8h-51.2v284.8zM515.2 380.8h-121.6l121.6 192v-192z" />
<glyph unicode="&#xe62a;" d="M515.2 380.8v192l-124.8-192zM512 934.4c-281.6 0-512-230.4-512-512s230.4-512 512-512 512 230.4 512 512c0 281.6-230.4 512-512 512zM659.2 300.8h-51.2v-102.4h-92.8v102.4h-208v67.2l182.4 291.2h118.4v-281.6h51.2v-76.8z" />
<glyph unicode="&#xe62b;" d="M512 934.4c-281.6 0-512-230.4-512-512s230.4-512 512-512 512 230.4 512 512c0 281.6-230.4 512-512 512zM512-25.6c-246.4 0-448 201.6-448 448s201.6 448 448 448 448-201.6 448-448c0-246.4-201.6-448-448-448zM499.2 451.2h-144v150.4h-76.8v-371.2h76.8v153.6h144v-153.6h76.8v371.2h-76.8zM627.2 476.8l3.2-48c12.8 0 48 6.4 60.8 12.8v-211.2h57.6v278.4h-38.4c-22.4-19.2-48-28.8-83.2-32z" />
<glyph unicode="&#xe62c;" d="M512 934.4c-281.6 0-512-230.4-512-512s230.4-512 512-512 512 230.4 512 512c0 281.6-230.4 512-512 512zM576 230.4h-80v153.6h-140.8v-153.6h-76.8v371.2h80v-150.4h140.8v150.4h76.8v-371.2zM745.6 230.4h-57.6v208c-12.8-6.4-48-12.8-60.8-12.8l-3.2 48c35.2 3.2 60.8 12.8 80 32h38.4v-275.2z" />
<glyph unicode="&#xe62d;" d="M512 934.4c-281.6 0-512-230.4-512-512s230.4-512 512-512 512 230.4 512 512c0 281.6-230.4 512-512 512zM512-25.6c-246.4 0-448 201.6-448 448s201.6 448 448 448 448-201.6 448-448c0-246.4-201.6-448-448-448zM480 451.2h-144v150.4h-76.8v-371.2h76.8v153.6h144v-153.6h76.8v371.2h-76.8zM681.6 281.6l44.8 51.2c41.6 44.8 60.8 70.4 60.8 108.8 0 44.8-28.8 70.4-83.2 70.4-51.2 0-89.6-22.4-96-76.8l51.2-9.6c3.2 25.6 12.8 41.6 38.4 41.6 22.4 0 32-9.6 32-28.8 0-28.8-19.2-51.2-54.4-89.6l-60.8-70.4v-48h176v51.2h-108.8z" />
<glyph unicode="&#xe62e;" d="M512 934.4c-281.6 0-512-230.4-512-512s230.4-512 512-512 512 230.4 512 512c0 281.6-230.4 512-512 512zM556.8 230.4h-76.8v153.6h-140.8v-153.6h-80v371.2h80v-150.4h140.8v150.4h80v-371.2zM790.4 230.4h-176v48l60.8 70.4c35.2 41.6 54.4 60.8 54.4 89.6 0 19.2-9.6 28.8-32 28.8-25.6 0-35.2-16-38.4-41.6l-51.2 9.6c6.4 54.4 44.8 76.8 96 76.8 54.4 0 83.2-25.6 83.2-70.4 0-38.4-19.2-64-60.8-108.8l-44.8-51.2h108.8v-51.2z" />
<glyph unicode="&#xe62f;" d="M512 934.4c-281.6 0-512-230.4-512-512s230.4-512 512-512 512 230.4 512 512-230.4 512-512 512zM512-25.6c-246.4 0-448 201.6-448 448s201.6 448 448 448 448-201.6 448-448-201.6-448-448-448zM224 230.4h576v448h-576v-448zM320 550.4h384v-64h-384v64zM320 422.4h384v-64h-384v64zM320 166.4h384v-64h-384v64z" />
<glyph unicode="&#xe630;" d="M512 934.4c-281.6 0-512-230.4-512-512s230.4-512 512-512 512 230.4 512 512c0 281.6-230.4 512-512 512zM704 102.4h-384v64h384v-64zM800 230.4h-576v448h576v-448zM320 550.4h384v-64h-384v64zM320 422.4h384v-64h-384v64z" />
<glyph unicode="&#xe631;" d="M512 934.4c-281.6 0-512-230.4-512-512s230.4-512 512-512 512 230.4 512 512c0 281.6-230.4 512-512 512zM512-25.6c-246.4 0-448 201.6-448 448s201.6 448 448 448 448-201.6 448-448c0-246.4-201.6-448-448-448zM448 230.4h80l35.2 265.6h-76.8zM544 624c-32 0-54.4-19.2-54.4-51.2 0-25.6 16-38.4 41.6-38.4 32 0 54.4 19.2 54.4 54.4 0 22.4-16 35.2-41.6 35.2z" />
<glyph unicode="&#xe632;" d="M512 934.4c-281.6 0-512-230.4-512-512s230.4-512 512-512 512 230.4 512 512c0 281.6-230.4 512-512 512zM528 230.4h-80l38.4 265.6h76.8l-35.2-265.6zM531.2 534.4c-25.6 0-41.6 12.8-41.6 38.4 0 32 19.2 51.2 54.4 51.2 25.6 0 41.6-12.8 41.6-38.4 0-32-22.4-51.2-54.4-51.2z" />
<glyph unicode="&#xe633;" d="M512 934.4c-281.6 0-512-230.4-512-512s230.4-512 512-512 512 230.4 512 512c0 281.6-230.4 512-512 512zM512-25.6c-246.4 0-448 201.6-448 448s201.6 448 448 448 448-201.6 448-448-201.6-448-448-448zM320 294.4h384v-64h-384v64zM320 166.4h384v-64h-384v64zM768 678.4h-544v-320h576v320h-32z" />
<glyph unicode="&#xe634;" d="M512 934.4c-281.6 0-512-230.4-512-512s230.4-512 512-512 512 230.4 512 512c0 281.6-230.4 512-512 512zM704 102.4h-384v64h384v-64zM704 230.4h-384v64h384v-64zM800 358.4h-576v320h576v-320z" />
<glyph unicode="&#xe635;" d="M512 934.4c-281.6 0-512-230.4-512-512s230.4-512 512-512 512 230.4 512 512c0 281.6-230.4 512-512 512zM512-25.6c-246.4 0-448 201.6-448 448s201.6 448 448 448 448-201.6 448-448c0-246.4-201.6-448-448-448zM608 457.6l-44.8 44.8-44.8-44.8 44.8-44.8-182.4-182.4-156.8 160 182.4 182.4 22.4-22.4 44.8 44.8-22.4 22.4c-25.6 25.6-64 25.6-89.6 0l-182.4-182.4c-25.6-25.6-25.6-64 0-89.6l156.8-156.8c25.6-25.6 64-25.6 89.6 0l182.4 182.4c25.6 22.4 25.6 60.8 0 86.4zM835.2 502.4l-156.8 156.8c-25.6 25.6-64 25.6-89.6 0l-182.4-182.4c-25.6-25.6-25.6-64 0-89.6l44.8-44.8 44.8 44.8-44.8 44.8 182.4 182.4 156.8-156.8-182.4-179.2-22.4 22.4-44.8-44.8 22.4-22.4c25.6-25.6 64-25.6 89.6 0l182.4 182.4c25.6 22.4 25.6 64 0 86.4z" />
<glyph unicode="&#xe636;" d="M512 934.4c-281.6 0-512-230.4-512-512s230.4-512 512-512 512 230.4 512 512c0 281.6-230.4 512-512 512zM428.8 185.6c-25.6-25.6-64-25.6-89.6 0l-156.8 156.8c-25.6 25.6-25.6 64 0 89.6l182.4 182.4c25.6 25.6 64 25.6 89.6 0l22.4-22.4-44.8-44.8-22.4 22.4-185.6-179.2 156.8-156.8 182.4 182.4-44.8 44.8 44.8 44.8 44.8-44.8c25.6-25.6 25.6-64 0-89.6l-179.2-185.6zM835.2 412.8l-182.4-182.4c-25.6-25.6-64-25.6-89.6 0l-22.4 22.4 44.8 44.8 22.4-22.4 182.4 182.4-156.8 156.8-182.4-182.4 44.8-44.8-44.8-44.8-44.8 48c-25.6 25.6-25.6 64 0 89.6l182.4 182.4c25.6 25.6 64 25.6 89.6 0l156.8-156.8c25.6-25.6 25.6-67.2 0-92.8z" />
<glyph unicode="&#xe637;" d="M0 422.4c0-281.6 230.4-512 512-512s512 230.4 512 512-230.4 512-512 512-512-230.4-512-512zM64 422.4c0 246.4 201.6 448 448 448s448-201.6 448-448c0-246.4-201.6-448-448-448s-448 201.6-448 448zM460.8 723.2l300.8-300.8-300.8-300.8-89.6 89.6 211.2 211.2-211.2 211.2z" />
<glyph unicode="&#xe638;" d="M0 422.4c0-281.6 230.4-512 512-512s512 230.4 512 512c0 281.6-230.4 512-512 512s-512-230.4-512-512zM582.4 422.4l-211.2 211.2 89.6 89.6 300.8-300.8-300.8-300.8-89.6 89.6 211.2 211.2z" />
<glyph unicode="&#xe639;" d="M512 934.4c-281.6 0-512-230.4-512-512s230.4-512 512-512 512 230.4 512 512c0 281.6-230.4 512-512 512zM512-25.6c-246.4 0-448 201.6-448 448s201.6 448 448 448 448-201.6 448-448c0-246.4-201.6-448-448-448zM358.4 608l3.2-83.2c22.4 0 76.8 9.6 99.2 19.2v-345.6h96v464h-67.2c-28.8-35.2-73.6-48-131.2-54.4z" />
<glyph unicode="&#xe63a;" d="M512 934.4c-281.6 0-512-230.4-512-512s230.4-512 512-512 512 230.4 512 512c0 281.6-230.4 512-512 512zM556.8 198.4h-96v348.8c-22.4-12.8-76.8-19.2-99.2-19.2l-3.2 83.2c57.6 3.2 102.4 19.2 134.4 54.4h67.2v-467.2z" />
<glyph unicode="&#xe63b;" d="M512 934.4c-281.6 0-512-230.4-512-512s230.4-512 512-512 512 230.4 512 512-230.4 512-512 512zM512-25.6c-246.4 0-448 201.6-448 448s201.6 448 448 448 448-201.6 448-448c0-246.4-201.6-448-448-448zM563.2 723.2l-300.8-300.8 300.8-300.8 89.6 89.6-211.2 211.2 211.2 211.2z" />
<glyph unicode="&#xe63c;" d="M512 934.4c-281.6 0-512-230.4-512-512s230.4-512 512-512 512 230.4 512 512c0 281.6-230.4 512-512 512zM652.8 211.2l-89.6-89.6-300.8 300.8 300.8 300.8 89.6-89.6-211.2-211.2 211.2-211.2z" />
<glyph unicode="&#xe63d;" d="M512 934.4c-281.6 0-512-230.4-512-512s230.4-512 512-512 512 230.4 512 512c0 281.6-230.4 512-512 512zM512-25.6c-246.4 0-448 201.6-448 448s201.6 448 448 448 448-201.6 448-448c0-246.4-201.6-448-448-448zM636.8 566.4c-73.6-112-92.8-172.8-92.8-217.6 0-41.6 25.6-70.4 67.2-70.4s67.2 28.8 67.2 67.2c0 25.6-12.8 48-35.2 57.6 12.8 48 35.2 86.4 57.6 124.8l-64 38.4zM412.8 566.4c-70.4-112-89.6-172.8-89.6-217.6 0-41.6 25.6-70.4 67.2-70.4s67.2 28.8 67.2 67.2c0 25.6-12.8 48-35.2 57.6 12.8 48 35.2 86.4 57.6 124.8l-67.2 38.4z" />
<glyph unicode="&#xe63e;" d="M512 934.4c-281.6 0-512-230.4-512-512s230.4-512 512-512 512 230.4 512 512c0 281.6-230.4 512-512 512zM457.6 345.6c0-38.4-25.6-67.2-67.2-67.2s-67.2 28.8-67.2 70.4c0 44.8 19.2 105.6 89.6 217.6l67.2-38.4c-19.2-38.4-44.8-76.8-57.6-124.8 22.4-6.4 35.2-28.8 35.2-57.6zM681.6 345.6c0-38.4-25.6-67.2-67.2-67.2s-70.4 28.8-70.4 70.4c0 44.8 19.2 105.6 89.6 217.6l67.2-38.4c-19.2-38.4-44.8-76.8-57.6-124.8 25.6-6.4 38.4-28.8 38.4-57.6z" />
<glyph unicode="&#xe63f;" d="M512 934.4c-281.6 0-512-230.4-512-512s230.4-512 512-512 512 230.4 512 512c0 281.6-230.4 512-512 512zM512-25.6c-246.4 0-448 201.6-448 448s201.6 448 448 448c246.4 0 448-201.6 448-448s-201.6-448-448-448zM320 294.4h384v-64h-384v64zM320 166.4h384v-64h-384v64zM320 678.4h384v-320h-384v320z" />
<glyph unicode="&#xe640;" d="M512 934.4c-281.6 0-512-230.4-512-512s230.4-512 512-512 512 230.4 512 512c0 281.6-230.4 512-512 512zM704 102.4h-384v64h384v-64zM704 230.4h-384v64h384v-64zM704 358.4h-384v320h384v-320z" />
<glyph unicode="&#xe641;" d="M148.48 811.52c-97.28-97.28-148.48-225.28-148.48-363.52s51.2-266.24 148.48-363.52 225.28-148.48 363.52-148.48c281.6 0 512 230.4 512 512 0 138.24-51.2 266.24-148.48 363.52v0c-97.28 97.28-225.28 148.48-363.52 148.48s-266.24-51.2-363.52-148.48zM803.84 739.84c76.8-81.92 117.76-184.32 117.76-291.84s-40.96-209.92-117.76-291.84c-81.92-76.8-184.32-117.76-291.84-117.76s-209.92 40.96-291.84 117.76c-76.8 81.92-117.76 184.32-117.76 291.84s40.96 209.92 117.76 291.84c81.92 76.8 184.32 117.76 291.84 117.76s209.92-40.96 291.84-117.76zM460.8 499.2v0h-189.44v-102.4h189.44v-189.44h102.4v189.44h189.44v102.4h-189.44v189.44h-102.4z" />
<glyph unicode="&#xe642;" d="M875.52 811.52c-97.28 97.28-225.28 148.48-363.52 148.48s-266.24-51.2-363.52-148.48c-97.28-97.28-148.48-225.28-148.48-363.52s51.2-266.24 148.48-363.52c97.28-97.28 225.28-148.48 363.52-148.48 281.6 0 512 230.4 512 512 0 138.24-51.2 266.24-148.48 363.52v0zM752.64 499.2v-102.4h-189.44v-189.44h-102.4v189.44h-189.44v102.4h189.44v189.44h102.4v-189.44h189.44z" />
<glyph unicode="&#xe643;" d="M512 934.4c-281.6 0-512-230.4-512-512s230.4-512 512-512 512 230.4 512 512c0 281.6-230.4 512-512 512zM512-25.6c-246.4 0-448 201.6-448 448s201.6 448 448 448 448-201.6 448-448c0-246.4-201.6-448-448-448zM566.4 444.8v0c41.6 16 86.4 51.2 86.4 112 0 70.4-51.2 112-137.6 112-73.6 0-140.8-28.8-156.8-115.2l83.2-16c9.6 38.4 25.6 57.6 64 57.6s51.2-19.2 51.2-51.2c0-41.6-28.8-70.4-83.2-70.4h-28.8v-73.6h44.8c48 0 73.6-16 73.6-67.2 0-48-28.8-70.4-64-70.4-44.8 0-60.8 22.4-64 60.8l-86.4-16c9.6-89.6 80-118.4 150.4-118.4 99.2 0 163.2 54.4 163.2 137.6 0 70.4-35.2 105.6-96 118.4z" />
<glyph unicode="&#xe644;" d="M512 934.4c-281.6 0-512-230.4-512-512s230.4-512 512-512 512 230.4 512 512c0 281.6-230.4 512-512 512zM499.2 192c-73.6 0-140.8 32-150.4 118.4l86.4 16c6.4-38.4 22.4-60.8 64-60.8 35.2 0 64 22.4 64 70.4s-25.6 67.2-73.6 67.2h-44.8v73.6h28.8c54.4 0 83.2 28.8 83.2 70.4 0 32-12.8 51.2-51.2 51.2s-54.4-19.2-64-57.6l-83.2 16c16 86.4 83.2 115.2 156.8 115.2 89.6 0 137.6-41.6 137.6-112 0-60.8-44.8-96-86.4-108.8v-3.2c60.8-12.8 96-48 96-115.2 0-89.6-64-140.8-163.2-140.8z" />
<glyph unicode="&#xe645;" d="M512 934.4c-281.6 0-512-230.4-512-512s230.4-512 512-512 512 230.4 512 512c0 281.6-230.4 512-512 512zM512-25.6c-246.4 0-448 201.6-448 448s201.6 448 448 448 448-201.6 448-448c0-246.4-201.6-448-448-448zM480 284.8l76.8 83.2c67.2 73.6 99.2 118.4 99.2 182.4 0 76.8-48 118.4-140.8 118.4-86.4 0-150.4-38.4-160-131.2l86.4-16c6.4 44.8 22.4 67.2 64 67.2 35.2 0 51.2-19.2 51.2-48 0-48-35.2-83.2-92.8-150.4l-99.2-115.2v-76.8h294.4v83.2l-179.2 3.2z" />
<glyph unicode="&#xe646;" d="M512 934.4c-281.6 0-512-230.4-512-512s230.4-512 512-512 512 230.4 512 512c0 281.6-230.4 512-512 512zM662.4 198.4h-294.4v80l99.2 115.2c57.6 67.2 92.8 102.4 92.8 150.4 0 32-16 48-51.2 48-41.6 0-57.6-25.6-64-67.2l-86.4 16c9.6 92.8 73.6 131.2 160 131.2 92.8 0 140.8-44.8 140.8-118.4 0-67.2-32-108.8-99.2-182.4l-80-86.4v-3.2h182.4v-83.2z" />
<glyph unicode="&#xe647;" d="M752.64 488.96l-240.64-240.64-240.64 240.64 71.68 71.68 168.96-168.96 168.96 168.96zM512 960c-138.24 0-266.24-51.2-363.52-148.48s-148.48-225.28-148.48-363.52c0 0 0 0 0 0 0-138.24 51.2-266.24 148.48-363.52 199.68-199.68 522.24-199.68 721.92 0 102.4 97.28 153.6 225.28 153.6 363.52s-51.2 266.24-148.48 363.52-225.28 148.48-363.52 148.48zM512 857.6c107.52 0 209.92-40.96 291.84-117.76 76.8-81.92 117.76-184.32 117.76-291.84s-40.96-209.92-117.76-291.84c-81.92-76.8-184.32-117.76-291.84-117.76s-209.92 40.96-291.84 117.76-117.76 184.32-117.76 291.84 40.96 209.92 117.76 291.84c81.92 76.8 184.32 117.76 291.84 117.76z" />
<glyph unicode="&#xe648;" d="M512 960c-138.24 0-266.24-51.2-363.52-148.48s-148.48-225.28-148.48-363.52v0c0-138.24 51.2-266.24 148.48-363.52 199.68-199.68 522.24-199.68 721.92 0 102.4 97.28 153.6 225.28 153.6 363.52s-51.2 266.24-148.48 363.52-225.28 148.48-363.52 148.48zM512 391.68l168.96 168.96 71.68-71.68-240.64-240.64-240.64 240.64 71.68 71.68 168.96-168.96z" />
<glyph unicode="&#xe649;" d="M0 755.2c0 66.56 0 138.24 0 204.8 343.040 0 680.96 0 1024 0 0-66.56 0-138.24 0-204.8-343.040 0-680.96 0-1024 0zM0 550.4c343.040 0 680.96 0 1024 0 0-66.56 0-138.24 0-204.8-343.040 0-680.96 0-1024 0 0 66.56 0 138.24 0 204.8zM0 140.8c343.040 0 680.96 0 1024 0 0-66.56 0-133.12 0-204.8-343.040 0-680.96 0-1024 0 0 71.68 0 138.24 0 204.8z" />
<glyph unicode="&#xe64a;" d="M512 934.4c-281.6 0-512-230.4-512-512s230.4-512 512-512 512 230.4 512 512c0 281.6-230.4 512-512 512zM512-25.6c-246.4 0-448 201.6-448 448s201.6 448 448 448 448-201.6 448-448-201.6-448-448-448zM364.8 185.6l428.8 236.8-428.8 236.8z" />
<glyph unicode="&#xe64b;" d="M512 934.4c-281.6 0-512-230.4-512-512s230.4-512 512-512c281.6 0 512 230.4 512 512s-230.4 512-512 512zM364.8 185.6v473.6l428.8-236.8-428.8-236.8z" />
<glyph unicode="&#xe64c;" d="M512 947.2c-281.6 0-512-230.4-512-512s230.4-512 512-512 512 230.4 512 512-230.4 512-512 512zM336 387.2h-128v64h128v-64zM592 387.2h-160v64h160v-64zM816 387.2h-128v64h128v-64z" />
<glyph unicode="&#xe64d;" d="M512 934.4c-281.6 0-512-230.4-512-512s230.4-512 512-512 512 230.4 512 512c0 281.6-230.4 512-512 512zM512-25.6c-246.4 0-448 201.6-448 448s201.6 448 448 448 448-201.6 448-448-201.6-448-448-448zM176 678.4v-512h672v512h-672zM784 230.4h-544v384h544v-384zM304 550.4h64v-256h-64v256z" />
<glyph unicode="&#xe64e;" d="M0 422.4c0-281.6 230.4-512 512-512s512 230.4 512 512-230.4 512-512 512c-281.6 0-512-230.4-512-512zM64 422.4c0 246.4 201.6 448 448 448s448-201.6 448-448c0-246.4-201.6-448-448-448s-448 201.6-448 448zM288 646.4h192v-192h-192v192zM544 646.4h192v-192h-192v192zM288 390.4h192v-192h-192v192zM544 390.4h192v-192h-192v192z" />
<glyph unicode="&#xe64f;" d="M512 934.4c-281.6 0-512-230.4-512-512s230.4-512 512-512 512 230.4 512 512c0 281.6-230.4 512-512 512zM480 198.4h-192v192h192v-192zM480 454.4h-192v192h192v-192zM736 198.4h-192v192h192v-192zM736 454.4h-192v192h192v-192z" />
<glyph unicode="&#xe650;" d="M512 934.4c-281.6 0-512-230.4-512-512s230.4-512 512-512 512 230.4 512 512-230.4 512-512 512zM512 870.4c246.4 0 448-201.6 448-448s-201.6-448-448-448c-246.4 0-448 201.6-448 448s201.6 448 448 448zM812.8 473.6l-300.8-300.8-300.8 300.8 89.6 89.6 211.2-211.2 211.2 211.2z" />
<glyph unicode="&#xe651;" d="M512 934.4c-281.6 0-512-230.4-512-512s230.4-512 512-512c281.6 0 512 230.4 512 512s-230.4 512-512 512zM512 352l211.2 211.2 89.6-89.6-300.8-300.8-300.8 300.8 89.6 89.6 211.2-211.2z" />
<glyph unicode="&#xe652;" d="M521.6 496v0l-131.2 131.2-73.6-73.6 131.2-131.2-131.2-131.2 73.6-73.6 131.2 131.2 131.2-131.2 73.6 73.6-131.2 131.2 131.2 131.2-73.6 73.6zM0 422.4c0-281.6 230.4-512 512-512s512 230.4 512 512-230.4 512-512 512c-281.6 0-512-230.4-512-512zM64 422.4c0 246.4 201.6 448 448 448s448-201.6 448-448c0-246.4-201.6-448-448-448s-448 201.6-448 448z" />
<glyph unicode="&#xe653;" d="M1024 422.4c0 137.6-54.4 265.6-150.4 361.6s-224 150.4-361.6 150.4c-137.6 0-265.6-54.4-361.6-150.4s-150.4-224-150.4-361.6c0-137.6 54.4-265.6 150.4-361.6 198.4-198.4 524.8-198.4 723.2 0 96 96 150.4 224 150.4 361.6v0zM716.8 291.2l-73.6-73.6-131.2 131.2-131.2-131.2-73.6 73.6 131.2 131.2-131.2 131.2 73.6 73.6 131.2-131.2 131.2 131.2 73.6-73.6-131.2-131.2 131.2-131.2z" />
<glyph unicode="&#xe654;" d="M512 934.4c-281.6 0-512-230.4-512-512s230.4-512 512-512 512 230.4 512 512-230.4 512-512 512zM512-25.6c-246.4 0-448 201.6-448 448s201.6 448 448 448 448-201.6 448-448c0-246.4-201.6-448-448-448zM454.4 377.6l-182.4 140.8c0 0-6.4-163.2 108.8-275.2 38.4-38.4 89.6-73.6 89.6-73.6l409.6 457.6c-252.8-67.2-425.6-249.6-425.6-249.6z" />
<glyph unicode="&#xe655;" d="M512 934.4c-281.6 0-512-230.4-512-512s230.4-512 512-512c281.6 0 512 230.4 512 512s-230.4 512-512 512zM460.8 169.6c0 0-48 32-89.6 73.6-115.2 112-108.8 275.2-108.8 275.2l182.4-137.6c0 0 172.8 182.4 425.6 249.6l-409.6-460.8z" />
<glyph unicode="&#xe656;" d="M0 422.4c0-281.6 230.4-512 512-512s512 230.4 512 512-230.4 512-512 512c-281.6 0-512-230.4-512-512zM64 422.4c0 246.4 201.6 448 448 448s448-201.6 448-448c0-246.4-201.6-448-448-448s-448 201.6-448 448zM483.2 262.4l-12.8 192h-64l12.8-192zM611.2 454.4h-64l-12.8-192h64zM774.4 608l-156.8 28.8 16 96-188.8 32-16-96-156.8 28.8-9.6-64 300.8-54.4h-313.6l73.6-448h374.4l73.6 448 3.2 28.8zM492.8 659.2l6.4 32 64-9.6-6.4-32-64 9.6zM643.2 198.4h-265.6l-54.4 320h374.4l-54.4-320z" />
<glyph unicode="&#xe657;" d="M377.6 198.4h265.6l54.4 320h-374.4l54.4-320zM547.2 454.4l64-3.2-12.8-192-64 3.2 12.8 192zM470.4 454.4l12.8-192-64-3.2-12.8 192 64 3.2zM512 934.4c-281.6 0-512-230.4-512-512s230.4-512 512-512 512 230.4 512 512c0 281.6-230.4 512-512 512zM771.2 582.4l-73.6-448h-374.4l-73.6 448h310.4l-300.8 51.2 9.6 64 156.8-28.8 16 96 188.8-32-16-96 156.8-28.8v-25.6z" />
<glyph unicode="&#xe658;" d="M464 470.4c0-44.182-35.818-80-80-80s-80 35.818-80 80c0 44.182 35.818 80 80 80s80-35.818 80-80zM512 934.4c-281.6 0-512-230.4-512-512s230.4-512 512-512 512 230.4 512 512c0 281.6-230.4 512-512 512zM208 646.4h608v-384c-12.8 115.2-44.8 230.4-124.8 230.4-99.2 0-89.6-227.2-188.8-227.2-51.2 0-80 70.4-131.2 70.4-57.6 0-80-64-102.4-134.4 0 0 0 0 0-3.2h-64v448z" />
<glyph unicode="&#xe659;" d="M512 934.4c-281.6 0-512-230.4-512-512s230.4-512 512-512 512 230.4 512 512c0 281.6-230.4 512-512 512zM512-25.6c-246.4 0-448 201.6-448 448s201.6 448 448 448 448-201.6 448-448-201.6-448-448-448zM176 678.4v-512h672v512h-672zM240 614.4h544v-204.8c-19.2 48-51.2 83.2-92.8 83.2-99.2 0-89.6-227.2-188.8-227.2-51.2 0-80 70.4-131.2 70.4-48 0-73.6-48-92.8-105.6h-38.4v384zM464 470.4c0-44.182-35.818-80-80-80s-80 35.818-80 80c0 44.182 35.818 80 80 80s80-35.818 80-80z" />
<glyph unicode="&#xe65a;" d="M512 934.4c-281.6 0-512-230.4-512-512s230.4-512 512-512 512 230.4 512 512c0 281.6-230.4 512-512 512zM512-25.6c-246.4 0-448 201.6-448 448s201.6 448 448 448 448-201.6 448-448c0-246.4-201.6-448-448-448zM256 454.4h512v-64h-512v64zM256 326.4h320v-64h-320v64zM256 582.4h512v-64h-512v64z" />
<glyph unicode="&#xe65b;" d="M512 934.4c-281.6 0-512-230.4-512-512s230.4-512 512-512 512 230.4 512 512c0 281.6-230.4 512-512 512zM256 582.4h512v-64h-512v64zM576 262.4h-320v64h320v-64zM768 390.4h-512v64h512v-64z" />
<glyph unicode="&#xe65c;" d="M512 934.4c-281.6 0-512-230.4-512-512s230.4-512 512-512 512 230.4 512 512c0 281.6-230.4 512-512 512zM512-25.6c-246.4 0-448 201.6-448 448s201.6 448 448 448 448-201.6 448-448-201.6-448-448-448zM208 198.4h608v448h-608v-448zM425.6 540.8l214.4-118.4-214.4-118.4v236.8z" />
<glyph unicode="&#xe65d;" d="M512 934.4c-281.6 0-512-230.4-512-512s230.4-512 512-512 512 230.4 512 512c0 281.6-230.4 512-512 512zM816 198.4h-608v448h608v-448zM425.6 540.8v-236.8l214.4 118.4z" />
<glyph unicode="&#xe65e;" d="M512 934.4c-281.6 0-512-230.4-512-512s230.4-512 512-512 512 230.4 512 512c0 281.6-230.4 512-512 512zM512-25.6c-246.4 0-448 201.6-448 448s201.6 448 448 448 448-201.6 448-448-201.6-448-448-448zM620.8 528l105.6-105.6-105.6-105.6 44.8-44.8 150.4 150.4-150.4 150.4zM358.4 572.8l-150.4-150.4 150.4-150.4 44.8 44.8-105.6 105.6 105.6 105.6z" />
<glyph unicode="&#xe65f;" d="M512 934.4c-281.6 0-512-230.4-512-512s230.4-512 512-512 512 230.4 512 512-230.4 512-512 512zM403.2 316.8l-44.8-44.8-150.4 150.4 150.4 150.4 44.8-44.8-105.6-105.6 105.6-105.6zM665.6 272l-44.8 44.8 105.6 105.6-105.6 105.6 44.8 44.8 150.4-150.4-150.4-150.4z" />
<glyph unicode="&#xe660;" d="M511.974 960c-282.712 0-511.974-229.211-511.974-511.974 0-209.654 126.048-389.715 306.468-468.917-1.434 35.736-0.256 78.639 8.908 117.549 9.83 41.572 65.891 278.975 65.891 278.975s-16.383 32.715-16.383 80.994c0 75.875 43.979 132.55 98.76 132.55 46.59 0 69.065-34.968 69.065-76.847 0-46.794-29.848-116.833-45.207-181.649-12.799-54.372 27.237-98.657 80.841-98.657 97.019 0 162.296 124.615 162.296 272.217 0 112.174-75.567 196.189-213.033 196.189-155.333 0-252.045-115.809-252.045-245.185 0-44.593 13.158-76.028 33.739-100.449 9.472-11.161 10.803-15.666 7.372-28.517-2.457-9.472-8.089-32.101-10.444-41.112-3.379-12.953-13.875-17.612-25.599-12.799-71.523 29.183-104.852 107.566-104.852 195.574 0 145.401 122.669 319.83 365.908 319.83 195.472 0 324.131-141.459 324.131-293.31 0-200.796-111.662-350.856-276.261-350.856-55.293 0-107.259 29.848-125.075 63.792 0 0-29.746-117.959-35.992-140.742-10.854-39.473-32.101-78.946-51.556-109.716 46.026-13.567 94.715-20.991 145.094-20.991 282.712 0 511.974 229.262 511.974 512.026-0.051 282.815-229.313 512.026-512.026 512.026z" />
<glyph unicode="&#xe661;" d="M274.381 54.733c11.162 47.104 74.701 316.314 74.701 316.314s-18.534 37.069-18.534 91.802c0 86.016 49.92 150.272 111.974 150.272 52.787 0 78.285-39.629 78.285-87.142 0-53.043-33.843-132.454-51.251-205.926-14.541-61.645 30.925-111.923 91.648-111.923 109.978 0 184.013 141.312 184.013 308.685 0 127.181-85.658 222.464-241.51 222.464-176.077 0-285.798-131.328-285.798-278.016 0-50.586 14.899-86.272 38.298-113.92 10.701-12.646 12.237-17.766 8.346-32.307-2.765-10.752-9.165-36.403-11.827-46.592-3.84-14.694-15.77-19.968-29.030-14.49-81.101 33.075-118.886 121.958-118.886 221.747 0 164.864 139.059 362.598 414.874 362.598 221.645 0 367.462-160.358 367.462-332.544 0-227.686-126.566-397.824-313.19-397.824-62.669 0-121.6 33.843-141.824 72.346 0 0-33.69-133.683-40.806-159.59-8.141-29.184-21.35-58.163-35.635-84.685h591.514c42.24 0 76.8 34.509 76.8 76.8v870.4c0 42.24-34.56 76.8-76.8 76.8h-870.4c-42.24 0-76.8-34.56-76.8-76.8v-870.4c0-42.291 34.56-76.8 76.8-76.8h187.238c-0.768 37.325 1.178 79.616 10.342 118.733z" />
<glyph unicode="&#xe662;" d="M512 279.040c117.76 0 261.12 138.24 291.84 343.040 35.84 215.040-112.64 337.92-291.84 337.92s-327.68-122.88-291.84-343.040c30.72-199.68 174.080-337.92 291.84-337.92zM691.2 207.36c-56.32-35.84-117.76-56.32-179.2-56.32s-122.88 20.48-179.2 56.32c-112.64-66.56-276.48-122.88-332.8-271.36h1024c-56.32 148.48-220.16 204.8-332.8 271.36z" />
<glyph unicode="&#xe663;" d="M512 908.8c-281.6 0-512-163.84-512-409.6 0-133.12 66.56-240.64 174.080-312.32l-174.080-199.68c0 0 215.040 10.24 384 112.64 40.96-5.12 87.040-10.24 128-10.24 281.6 0 512 163.84 512 409.6s-230.4 409.6-512 409.6z" />
<glyph unicode="&#xe664;" d="M921.6 755.2c54.613 0 102.4 47.787 102.4 102.4s-47.787 102.4-102.4 102.4h-819.2c-54.613 0-102.4-47.787-102.4-102.4s47.787-102.4 102.4-102.4h819.2zM921.6-64c54.613 0 102.4 47.787 102.4 102.4s-47.787 102.4-102.4 102.4h-819.2c-54.613 0-102.4-47.787-102.4-102.4s47.787-102.4 102.4-102.4h819.2zM921.6 345.6c54.613 0 102.4 47.787 102.4 102.4s-47.787 102.4-102.4 102.4h-819.2c-54.613 0-102.4-47.787-102.4-102.4s47.787-102.4 102.4-102.4h819.2z" />
</font>
</defs>
</svg>
